<mxfile host="app.diagrams.net" agent="Mozilla/5.0 (Windows NT 10.0; Win64; x64) AppleWebKit/537.36 (KHTML, like Gecko) Chrome/129.0.0.0 Safari/537.36" version="24.7.17">
  <diagram name="PÃ¡gina-1" id="Y08NbsUr9lAh-kZoisot">
    <mxGraphModel dx="1600" dy="775" grid="1" gridSize="10" guides="1" tooltips="1" connect="1" arrows="1" fold="1" page="1" pageScale="1" pageWidth="827" pageHeight="1169" math="0" shadow="0">
      <root>
        <mxCell id="0" />
        <mxCell id="1" parent="0" />
        <mxCell id="B5A1lsXzcerOkvqFmVJx-16" value="" style="rounded=0;whiteSpace=wrap;html=1;fillColor=none;labelBackgroundColor=none;" vertex="1" parent="1">
          <mxGeometry x="70" y="150" width="590" height="240" as="geometry" />
        </mxCell>
        <mxCell id="B5A1lsXzcerOkvqFmVJx-17" value="" style="shape=image;verticalLabelPosition=bottom;labelBackgroundColor=none;verticalAlign=top;aspect=fixed;imageAspect=0;image=data:image/png,iVBORw0KGgoAAAANSUhEUgAAAQkAAACUCAMAAAC3OSx/AAAAzFBMVEX////ziQbxhgfvhAj2jQT0iwXqfgrtgQnpfAvneQv5kQL9lgH7lAIAAAD7+/v99ezyo2z71Krtn2z9w3T/xXz3wY7zvI/5sm73yaD2hwDmcgAoKCj/2Kr0tHjxoVTx8fH6nziurq782rT+6tH6mR7Z2dmJiYn2kR/viS+fn59GRkbKysr4pExpaWn848j3v4PsbgAXFxdzc3M5OTm9vb1fX1/0fgCUlJQfHx9RUVH4unT+8uH4rFTl5eX4qWr6r2H7zZf4z6/kXgDtlETXhfAzAAAJHklEQVR4nO3aCXuawBYGYFRc4o1jc5vUEGoQDRggYmRHQzG3//8/3TPDLtimTZ4ndZyvrSu24e3MmUU4joWFhYWFhYWFhYWFhYWFhYWFhYWFhYWllPHtdr3FuT6ar2/LtfnZ5/K+jL947SzCQbqCwEPIDc6wOZckw8vvn30u78v4h9Bupel24XcSvpzaWeP85zAPFEg0UXT/mIIKiQ+hoEPiIygokfgAClok3k9BjcS7KeiReC/F6Ut02h9DcfISX/rt31Hg+SZfnX4CC6YpU5y+hNepUxCNnCKeHEn8UKKgQaKJIm8VvLDdjY9kty5RUCHRQJF3EF6Yc4ureVNMZM6KWkGHRImifdAqeMFE69aynIc0L7vFbJhTUCJxnELAEkIxehQjCP+0yCQuKZI43kHKEtXB9ClvE5iCGommVkFGEMHkbioSfN4mShKXl/RIHKXYm7HQNMWiV+KQQhAAAm66fEvgu3wXN4yuMMwpKJaoUggv0yehFa8fhG68ncG0YjvrLuPtMm8VicSQIol+M4UwH6+9tsnFwmw+ngjebgePTO5FyEeRRGJIkUQjRcubczfPnsk9ef05N/Gex+MX72HBzYSsVmQSQ4okmii82Y4z1/sdNyc3+zVCV/jRPp9b5BJDiiTqFN722CdMIbPIJYYUSRxQPE23C25nNgVx+0m8PJAYUiRRoejc4rfWnYc8Q/xnOIT7HbyzuxcOJIYUSfTLjWLyerXj1l4xjsAvEmEI1eNqP+seSoDSyUsM+ocU2KI1JxLFaixZmQqXOxhWh4d1gjKJcqvwvHnaJg5WpsMdevGSktmlVyKnaD9toWKmvaNCIfA77vs2qZgCluDplMgpkorp1fcrsERWMYlEsV9BmUS/34PbdnxVrpglCiwx/76fFWNHvkhfXn32ubwv4y8XvQJicosTd/p3eZ2oLtKxBNSJLl+0iYyCBomc4n5MXttDL2mXJTKKpHfEXovH+xVJncgX6VRIZBRTboHbxH3nx+sr9I7n2tZNtwUS5uvNrNVNx45i64YOiV4mcduBKpFVzJJEu9Q7SMX0ILNFJsHTI9ErJPAIcn+zXlQlUoo2SFytt7PWK1mD5BI8PRK9kgQeTHGdeK7vbbZJnegKS0Q+fbUs9japkeiVJGA09RKJQ4p2Ona01tfX1+ttAcHz9Ej0Sm0i/o7nEwcS7VTCxPOJ9IpNOiV6vVwirZidGkU7q5j16yvolLj/dpu2iYMOgiXmt+vHhktNTl7iv3d1CZz5UYnYE6rXV1AjMWiQuLsrJCoWPF6Vd/L9ihIFDRKDWu+YLhZjbn3XrkqkFXNhzn8Krdq1WFRIDA7bBKmY0/891yMsOHLBXqtGQYfE4EDi6evXBTdeNASGjv3XeFm5ACmhoERikEsks83B84SsS1FxYPZgLnilSywKClokBqlEP1uDePf4O7A1XmaQL8KmY3S1vhlz+65wuM2bUFAjMSgkEopn/L1o3+Re7pbp96ITb7ngnrzyIr1EQY/EoHeXSRAK/A3xXWfBxb1Hczzp3I1hIjFbcPfV/YrcgiaJwSCXIBTx9Knf+fFt2VlOpo+d/nQ6E9o/psv6Nm8SmiR6hUSPLEg7+Y53u4U3cOr7FSUKCiQuGtpEsbdJKJa35n2/vjKtFAsaJC6aJCoUS5Ob9I9dltalSOLiDRJxv/GytGJiQYfERS4xqMbre57X74HEj7pEdQShROIilXh9bMzPvHccp6BFAlNcTLlx43U0JqxM437DGr1MQY0Epvi5OHrc/LF6rUm9bNIjARQXj/eNieP7x8pVBU0UFEmQWpENI71eshTpV/IrCpokiilWr5S3UlAlUVAMjkj8olbQJdFI8dtWQaXE31G0aZT4ewrqJP6agj6JP6CoFAsKJf6SgkaJPxhMaZL4UtrH/MXMqnO0LWTpnrgEev32R7k5mv3x5RsLCwsLC3VRfC367J/h34g62mif/TP8E0G6ra9Yo4AYG9UXneJ5FElwi5I7iBQpiRNKrrBB6avp+/jV4uCTjjVSnMAnZ2KohuGvXMuRDBXuDPySb7mupcHbkYrj+/hQSYZXVQMjQJFxVDjEQb/5d/75RHqIojDE/+1I3oR66IZBuNJ1Sw9chZMs27VcO1ARZ+i2bet6oEdcZAW2G4q2jHDfcm3dsoPQ+OwzeW+0kcZJKukeSA5CR0LSauPiu1CUOaRECCFAUDgk4VgbFSEtCCWEHDswQEK0FDhEF0+96kpWoHCcE1gSaROkl8gjclYWSGQHgQSJNrJg2HVF8lTDKrptJAefuoRhh3AbufhUQUIlICMNV4BEQlKMSMkkHFGHAwxdJ2XFsXWQ0OmQQJq4MhzHWY3kZgnD0qF02IkEEOB7x3aTAqvb9EhEK1EPIbrooiaJKAw0R9ZCIqGsbDLaOnZIn4Rjrwwcx4Vy0SChBVAX0johZYVDCe0o/TA1EpI/Squiv1GbJPyNz+GWg8cOX9TSWZVFpueSBR+mRUIJs0HBsaGl1yUc0XYU2RXhMKiWqqZpPsyyHFv0DcPawCSdEgk451U6TY70kQPDJ5HQRiqWWMFgitTRaCT6q40CbybBdo6OH+HVChIDUjuskf+ZZ/LuSBKqPJSIC0peTe4i2ZDgIZfOrKT0I4YmJ60JpcsP6eRn2ywsLCwsLB8QKcqS7tfhNVqygycZvubQsFP3psBsKgg2kFGIpwyRKuJnIxUcNBG/rp/89tQbg9TAtvFWne2ChKJvRBGeByonAZGu22IQnslWOEiIquPIMp5dSm4A6w3ZcXwZllyh7xiyLm6c3/8tNARLZPt2nCaKerZtLTkKeVsMtPOYWpclpJUoqtXTllRxI9c/RWOwhI+3bxS8RBXtg66g6GK2lKc9pGLiWFLTaVvBxj+PzkEkREjQKKFugrP5FpWMHXgypSRdoTJ70EaieyZ9I5HIakMUiuVtOSSL4ul/7ffmlMcOGDLFUmdw7MA9HwgioWXrDgcmmKoRRYpiIOSEMJLAqkSJzqNkYolwhWNFeBECHWJlrUI3imC+aVvwurs6j1IBJ79JtrHxd3+SD6suWJGNdEnRR5v0nTORMLQ0MrmqQtHwxSS+gSI5e+N8L1FD51EXWFhYWFhYKM3/AfYvtjeBhibOAAAAAElFTkSuQmCC;clipPath=inset(16.22% 31.13% 4.05% 31.13%);imageBackground=none;" vertex="1" parent="1">
          <mxGeometry x="44" y="130" width="55.44" height="65.41" as="geometry" />
        </mxCell>
        <mxCell id="B5A1lsXzcerOkvqFmVJx-20" value="" style="whiteSpace=wrap;html=1;aspect=fixed;labelBackgroundColor=none;" vertex="1" parent="1">
          <mxGeometry x="129" y="240" width="80" height="80" as="geometry" />
        </mxCell>
        <mxCell id="B5A1lsXzcerOkvqFmVJx-21" value="" style="whiteSpace=wrap;html=1;aspect=fixed;labelBackgroundColor=none;" vertex="1" parent="1">
          <mxGeometry x="289" y="240" width="80" height="80" as="geometry" />
        </mxCell>
        <mxCell id="B5A1lsXzcerOkvqFmVJx-22" value="" style="whiteSpace=wrap;html=1;aspect=fixed;labelBackgroundColor=none;" vertex="1" parent="1">
          <mxGeometry x="459" y="240" width="80" height="80" as="geometry" />
        </mxCell>
        <mxCell id="B5A1lsXzcerOkvqFmVJx-23" value="" style="endArrow=none;html=1;rounded=0;exitX=1;exitY=0.5;exitDx=0;exitDy=0;entryX=0;entryY=0.5;entryDx=0;entryDy=0;labelBackgroundColor=none;fontColor=default;" edge="1" source="B5A1lsXzcerOkvqFmVJx-20" target="B5A1lsXzcerOkvqFmVJx-21" parent="1">
          <mxGeometry width="50" height="50" relative="1" as="geometry">
            <mxPoint x="389" y="450" as="sourcePoint" />
            <mxPoint x="439" y="400" as="targetPoint" />
          </mxGeometry>
        </mxCell>
        <mxCell id="B5A1lsXzcerOkvqFmVJx-24" value="" style="endArrow=none;html=1;rounded=0;entryX=1;entryY=0.5;entryDx=0;entryDy=0;exitX=0;exitY=0.5;exitDx=0;exitDy=0;labelBackgroundColor=none;fontColor=default;" edge="1" source="B5A1lsXzcerOkvqFmVJx-22" target="B5A1lsXzcerOkvqFmVJx-21" parent="1">
          <mxGeometry width="50" height="50" relative="1" as="geometry">
            <mxPoint x="389" y="450" as="sourcePoint" />
            <mxPoint x="439" y="400" as="targetPoint" />
          </mxGeometry>
        </mxCell>
        <mxCell id="B5A1lsXzcerOkvqFmVJx-26" value="" style="shape=image;verticalLabelPosition=bottom;labelBackgroundColor=none;verticalAlign=top;aspect=fixed;imageAspect=0;image=data:image/png,iVBORw0KGgoAAAANSUhEUgAAALMAAACUCAMAAADvY+hPAAAAhFBMVEX///8dY+3q6+4MXe2dsvXR3/sATOvv9P72+P4AWuy5x/cAWOxah/EAUutyl/IATuu9zPhvjvHO1/rH1foqae4WYO3p7fyZtvZQg/BeivFtlPI4ePDy8/QASOuOrPXZ5Pxmg/CIpfR8oPSvwvcAN+pRf/Azbu+ku/cAMOkAQeo5cu9gkPJijGtdAAADkUlEQVR4nO2d7XaiMBBAQyMmGPmoGBRQWGXVrbz/+y1f1lK3u5jEsZyd+2vO1AP30MmYIT8kGzI2NmSMzi/PVribF3QGAZ1hQGcY0BkGdIYBnWFAZxjQGQZ0hgGdYUBnGNAZBnSGAZ1hQGcY0BkGdIYBnWFAZxjQGQZ0hgGdYUDnDh61MPOXrnmI8+xt6ldsY27+2uRBzoFj1UhvfM4Und9B547ZVNT4yYic88mqIRiR84PRdc5/vDZMON+1UWKTRXxJGrLso+u82NIakTB+EHXkWCEJ3C75TZ397uuD8TVtomX43fvGfc6RkVUJ6swzq8y1btegX89yeD0HUgpaaN2vRtfZTuc164zz/boJY5uEh0uy/+E5rf8PgdYNiYH+zDo+RryLPinnbls8uuWh5hzMWiISFW20ICS8JmeXJL8mCclEU+ZOqTkLqDkvp26FLwKy+FlH7rRkPO2SIZlt22TM2aEJfSckbWnUD/oYPsM5lc3dq+V20zesa9+o9vwsfm8mhBzaD1jyRDi/qZwnOvd7Xc95fnGOMy8+xMl+EihVCaRzV8/VH0TbC11xPD3ZWX5ZG1bj3PaNHiIGc15upxVbv1qDv6ZNGDN+bpNuUM/dbbJag024FU1TjsUnZXpW6Xtqzrndwgjrovya5H9KNoVrn2VfWa2DgO35eWQX5fKjsaSHhdKl1Jx3k2GsTsWpjTJvfpZO93jrbYlwl5NISVnR+Y0OREp5jS7Pd50e1mWm1ufUnf2bBjAc4VXfKKq6Gs6W/LfbF0jL1hJWdk7VneleV1nRef+50Q5XThUXnrZzoe6sP6YoOttHxeIQJkZxNWdWUiVl/RlF3Zmc1JQt7VlQwzk/qxQHzUwoK+83VDqHk5g5FFJ1Zsu7K1rEhs6xlPd1hbyzOuhcvzNrOvPsvgctPFPKGvtnljjDjaW7N/eOVGPPz17p0PKgx5UxY705hXnOIGkpSs23MH20Zis2Ef8uainEyuzBt+Y8GM2tv1tLmk5MH9XrzrCsKMWXa1EKN92Z2GH00Z+7WRBTIW6Wo6ySVhLkDzhSMfKuIJrtytR6H1frgdU6l1n4mCMgY+83eLQoVtlu7yXefpetCjt6kDD5P89hnwE6w4DOMKAzDOgMAzrDgM4woDMM6AwDOsOAzjCgMwzoDAM6w4DOMKAzDOgMAzrDgM4woDMM6AwDOsOAzjCM03mMv58ySuexSW82vwGjzzutjfyXBwAAAABJRU5ErkJggg==;clipPath=inset(28.38% 22.07% 29.73% 22.07%);" vertex="1" parent="1">
          <mxGeometry x="131" y="247" width="40" height="24.8" as="geometry" />
        </mxCell>
        <mxCell id="B5A1lsXzcerOkvqFmVJx-27" value="" style="shape=image;verticalLabelPosition=bottom;labelBackgroundColor=none;verticalAlign=top;aspect=fixed;imageAspect=0;image=data:image/png,iVBORw0KGgoAAAANSUhEUgAAALMAAACUCAMAAADvY+hPAAAAhFBMVEX///8dY+3q6+4MXe2dsvXR3/sATOvv9P72+P4AWuy5x/cAWOxah/EAUutyl/IATuu9zPhvjvHO1/rH1foqae4WYO3p7fyZtvZQg/BeivFtlPI4ePDy8/QASOuOrPXZ5Pxmg/CIpfR8oPSvwvcAN+pRf/Azbu+ku/cAMOkAQeo5cu9gkPJijGtdAAADkUlEQVR4nO2d7XaiMBBAQyMmGPmoGBRQWGXVrbz/+y1f1lK3u5jEsZyd+2vO1AP30MmYIT8kGzI2NmSMzi/PVribF3QGAZ1hQGcY0BkGdIYBnWFAZxjQGQZ0hgGdYUBnGNAZBnSGAZ1hQGcY0BkGdIYBnWFAZxjQGQZ0hgGdYUDnDh61MPOXrnmI8+xt6ldsY27+2uRBzoFj1UhvfM4Und9B547ZVNT4yYic88mqIRiR84PRdc5/vDZMON+1UWKTRXxJGrLso+u82NIakTB+EHXkWCEJ3C75TZ397uuD8TVtomX43fvGfc6RkVUJ6swzq8y1btegX89yeD0HUgpaaN2vRtfZTuc164zz/boJY5uEh0uy/+E5rf8PgdYNiYH+zDo+RryLPinnbls8uuWh5hzMWiISFW20ICS8JmeXJL8mCclEU+ZOqTkLqDkvp26FLwKy+FlH7rRkPO2SIZlt22TM2aEJfSckbWnUD/oYPsM5lc3dq+V20zesa9+o9vwsfm8mhBzaD1jyRDi/qZwnOvd7Xc95fnGOMy8+xMl+EihVCaRzV8/VH0TbC11xPD3ZWX5ZG1bj3PaNHiIGc15upxVbv1qDv6ZNGDN+bpNuUM/dbbJag024FU1TjsUnZXpW6Xtqzrndwgjrovya5H9KNoVrn2VfWa2DgO35eWQX5fKjsaSHhdKl1Jx3k2GsTsWpjTJvfpZO93jrbYlwl5NISVnR+Y0OREp5jS7Pd50e1mWm1ufUnf2bBjAc4VXfKKq6Gs6W/LfbF0jL1hJWdk7VneleV1nRef+50Q5XThUXnrZzoe6sP6YoOttHxeIQJkZxNWdWUiVl/RlF3Zmc1JQt7VlQwzk/qxQHzUwoK+83VDqHk5g5FFJ1Zsu7K1rEhs6xlPd1hbyzOuhcvzNrOvPsvgctPFPKGvtnljjDjaW7N/eOVGPPz17p0PKgx5UxY705hXnOIGkpSs23MH20Zis2Ef8uainEyuzBt+Y8GM2tv1tLmk5MH9XrzrCsKMWXa1EKN92Z2GH00Z+7WRBTIW6Wo6ySVhLkDzhSMfKuIJrtytR6H1frgdU6l1n4mCMgY+83eLQoVtlu7yXefpetCjt6kDD5P89hnwE6w4DOMKAzDOgMAzrDgM4woDMM6AwDOsOAzjCgMwzoDAM6w4DOMKAzDOgMAzrDgM4woDMM6AwDOsOAzjCM03mMv58ySuexSW82vwGjzzutjfyXBwAAAABJRU5ErkJggg==;clipPath=inset(28.38% 22.07% 29.73% 22.07%);" vertex="1" parent="1">
          <mxGeometry x="291" y="247" width="40" height="24.8" as="geometry" />
        </mxCell>
        <mxCell id="B5A1lsXzcerOkvqFmVJx-28" value="" style="shape=image;verticalLabelPosition=bottom;labelBackgroundColor=none;verticalAlign=top;aspect=fixed;imageAspect=0;image=data:image/png,iVBORw0KGgoAAAANSUhEUgAAALMAAACUCAMAAADvY+hPAAAAhFBMVEX///8dY+3q6+4MXe2dsvXR3/sATOvv9P72+P4AWuy5x/cAWOxah/EAUutyl/IATuu9zPhvjvHO1/rH1foqae4WYO3p7fyZtvZQg/BeivFtlPI4ePDy8/QASOuOrPXZ5Pxmg/CIpfR8oPSvwvcAN+pRf/Azbu+ku/cAMOkAQeo5cu9gkPJijGtdAAADkUlEQVR4nO2d7XaiMBBAQyMmGPmoGBRQWGXVrbz/+y1f1lK3u5jEsZyd+2vO1AP30MmYIT8kGzI2NmSMzi/PVribF3QGAZ1hQGcY0BkGdIYBnWFAZxjQGQZ0hgGdYUBnGNAZBnSGAZ1hQGcY0BkGdIYBnWFAZxjQGQZ0hgGdYUDnDh61MPOXrnmI8+xt6ldsY27+2uRBzoFj1UhvfM4Und9B547ZVNT4yYic88mqIRiR84PRdc5/vDZMON+1UWKTRXxJGrLso+u82NIakTB+EHXkWCEJ3C75TZ397uuD8TVtomX43fvGfc6RkVUJ6swzq8y1btegX89yeD0HUgpaaN2vRtfZTuc164zz/boJY5uEh0uy/+E5rf8PgdYNiYH+zDo+RryLPinnbls8uuWh5hzMWiISFW20ICS8JmeXJL8mCclEU+ZOqTkLqDkvp26FLwKy+FlH7rRkPO2SIZlt22TM2aEJfSckbWnUD/oYPsM5lc3dq+V20zesa9+o9vwsfm8mhBzaD1jyRDi/qZwnOvd7Xc95fnGOMy8+xMl+EihVCaRzV8/VH0TbC11xPD3ZWX5ZG1bj3PaNHiIGc15upxVbv1qDv6ZNGDN+bpNuUM/dbbJag024FU1TjsUnZXpW6Xtqzrndwgjrovya5H9KNoVrn2VfWa2DgO35eWQX5fKjsaSHhdKl1Jx3k2GsTsWpjTJvfpZO93jrbYlwl5NISVnR+Y0OREp5jS7Pd50e1mWm1ufUnf2bBjAc4VXfKKq6Gs6W/LfbF0jL1hJWdk7VneleV1nRef+50Q5XThUXnrZzoe6sP6YoOttHxeIQJkZxNWdWUiVl/RlF3Zmc1JQt7VlQwzk/qxQHzUwoK+83VDqHk5g5FFJ1Zsu7K1rEhs6xlPd1hbyzOuhcvzNrOvPsvgctPFPKGvtnljjDjaW7N/eOVGPPz17p0PKgx5UxY705hXnOIGkpSs23MH20Zis2Ef8uainEyuzBt+Y8GM2tv1tLmk5MH9XrzrCsKMWXa1EKN92Z2GH00Z+7WRBTIW6Wo6ySVhLkDzhSMfKuIJrtytR6H1frgdU6l1n4mCMgY+83eLQoVtlu7yXefpetCjt6kDD5P89hnwE6w4DOMKAzDOgMAzrDgM4woDMM6AwDOsOAzjCgMwzoDAM6w4DOMKAzDOgMAzrDgM4woDMM6AwDOsOAzjCM03mMv58ySuexSW82vwGjzzutjfyXBwAAAABJRU5ErkJggg==;clipPath=inset(28.38% 22.07% 29.73% 22.07%);" vertex="1" parent="1">
          <mxGeometry x="461" y="247" width="40" height="24.8" as="geometry" />
        </mxCell>
        <mxCell id="B5A1lsXzcerOkvqFmVJx-29" value="" style="shape=image;verticalLabelPosition=bottom;labelBackgroundColor=none;verticalAlign=top;aspect=fixed;imageAspect=0;image=data:image/png,iVBORw0KGgoAAAANSUhEUgAAAJQAAACUCAMAAABC4vDmAAAAt1BMVEX////ocADnbADqbgD9+PNThKPkbADvdAD52sHnagDqZwD3wpjnaADskln88eft8vVNgKH09/nj6u/qeTdrk653mrSLqb5EeZz65NPicQDC0dzM2eJWgaKdtceCorS3ydaqwM/X4ejvnWj76tzsjEv0vprodxxgi6hDdJvgeQn1x6XoXgD2y67zroHkk1Pzp3Pys3/qfSzxsovmgTfsjUH40bvxmVjzvKA6eJNQhJzxpXrupGfgikdA2M6UAAAJ6ElEQVR4nO1caZeawBK1aWCAIIKRTWQEFZmnOAa3l0ny/3/Xq2oW10kyCdi+c3I/JC7MeK2uvrVMF51O8zCUFn7pX2M95c3gBjbfeDO4gcQXeVO4xmK5503hGovlF94UrrHRJrwpXOOb1uVN4QrGTH88S3lzfcWbwxU2gp7x5nAJIxdUgzeJS2x0tfto4qmo9OFWT/ysqfmDGUqcaFR7NEOtgNPhsQwlrnRBnXu8aZxjLRNZS3izOIPR1QnVHkvMp1vgtJydO5TI17+yuU6Ifiab4n6TcSWVCCpw2p7El2myPXCta8SDRoivd2tO4n5G53z1ypvpRKD6rl6rrKstv/ONytkTLJ26XJWcxCxfajvOFWlCBEIEodInb0JVfcK3HhU3sOuIUOm4uPFlIiy4UoIqATj5cl5yQgH155yXTlwvKaVqJQUe0cDfebcSEtmHbTcraXhb4LTlnQtnqu+TOi8wgKCa87aTgfvOF0qRFLuCT/m3EdY6FYi8Lp8l4OP8C/bpHMTAr/o+xlwglHLP8PYU1WBTPssg/Kkz7qlwglHYL0VJXINgqRP+pMBSZFtFvAM4/QOUoRmQUg/lE2MGpCjhLQgdzydEO5JSwc+1zU9/4g4Qf8hEm1VPJjqlEJh563lnoVOtjiqJhqT4t6bEXNNolRIoaCmIztyL9gwCcO1FW5VixpBzX8C1RupOfkYZdO5aNd0KepUHiwdmqgfounjzOuvsGHJBin9/KlkeMwPYjcyt+P9tLVku6zohwQUk6gM0Xtbatgou4g9kpf+XK58CG72SdXAxAZaPu6cj1vUCihgBZe5RmWGjVb690uly/dNr74fVtnqga4/T9EzKBYT880oQrB7gTjyss0/ymGKCwl/qQX/s2IOBHQZWy3TiYWjb4bB/9U6iXtZ9/XAcB5HtmuYgbpFR4AwkyQl6N765915byhpL5mgUtEQpDiXXtIe3XcT49H7aEgApsw3PAiNJpimN3/OOywZ1r39yZQiknOY59UITv276ywutXj8eRo4dnjpdPzVHafOmGn4FTsDKjuKedWktC9Dr9YNxFMJuSyXXvXBsy5Yks3lft6LUNUemabqumdqO44Ql4KEN216CNxhMKXWiS69mpNpwdSsIHbACwKwIVDxMd/Q2GqUD2wnHQf+G1/Vgz0rXItIMwF9wjUK0TgVmtfEwiPv9q3WtEMA3sVsWUIRV4rcudkzJHLdM6KMIXMlMWzZU74PeEYNDpW15VAFrbH9sc1u2aaZtRZkCQer+Qpsv1ikGTh/8Gh8FaLP0k68NAho6Z9INP/DVaTmjAp+F7Z3aIEigAf0+5nDwX4xSATL2Jplv5ugkQEbtpi0FLAc0u5RPsFk6AKQgqebXrxCuGcwX97l06/jZHbSd4DEETmoCn1HBQHp7g39Go7c30HSIQlI6cMZBsVz9MA3b3XRHWJDkDsyXFwgvp3BfzIETDeM6AYyjd1KvFpkFwyjCcMxicwQx7zIdvcey/cMf4VblwBmBE/GmcIVIcsN33vrNVKZ5BJgXpyGmdfUqWiz9c6DujO4sAyViqGsk6av5lqapbT8zYJ6MYjUy3UF0KyFuHVDxlnIu1dLJXhqhzLsvLecE7yBmdek1WJxxbrQZ2oRV+1B/bEsuM5BZm8x1JTu8a2TpB6ENJVR0tIIVj7H0LGBjdRW/t/da8bHe+Fly7fEtB7Z6LKn6+ceOm19QyEBMKfqb3xs5DdvKAkpm+lf7KR68p7V/iN4zevLgz93X6odm04aKXLa50uhPbAVJVzh4s4fNUgIfNd1ix0uY5vav20C3uBRBJ3yGhR+EVekTN+jtQ9t1iwCCxGDnR0UzA7fcCbCmiaGmGWKPCpRCwvTYjoJ63QO7SQWzetiYS7EBZVbssI5JB+eAmoYpqGu6X7GFFZ3IlhXYUgs9s17MmoZp3RtDAuYFWNnFqoczSeuNoUhutW5n7oI9qqKLV1UOYbmsly7XiyNYfym8W/Q5etTtt/sxFM3Si5uGraYNcXxVSN0gw/rDECpxOSFGBy1bqRc4xQYMrtkBl2LvYX94xHwvdcbxfdatNwydZ/R4ViNL2Ehwj63ZonJH4ndOq9gfsfpMk6Kjux+d/TeW+B/+4R/+XyFuXieTw8P8ab+A2FVPDro9CMRXn8j+o5HqqlT+z8OR0h6RlP6IpHD5Hm/30TNHFxG/+bO/f+lHSQlEfqpOnnuLL5NutztZZcWBDSMBLI7DYQt8yniI02wzYdd+YmbOlGlzPnBCSlnthBKqnrODbuJWp4Jfn7zx5pqm4blYY9Gd6ypeqKo6wTtzLLJDcye+jqSMmS4Q/BxBIIRQyg4mrVRC6rGCjjLHE+EiHnFWaXEtXCmo8NLUUJpzzBNLTTQ633XX68nMx89ikxZ7H6exKsdZ+L7PjsnuqUby2WS97uYCBaIN3y/khFRyyDzmPuI+ByuwwVVjSwldVscDvxDfJ7iY09lGmRZnvVaqTyhp9qjzmaPXUNBWbNJwpZ0c2p/Ivn81Z/QKttKaFbrbpMQtkGKH5DMdPKccujC2MiFXoyoLDUg1O2F3m1QHXiWfkZQhC7IgFD6Mkw/C1e1KcMam4bnp90kJjFRnp8qkPAO+14DU1ZlYBcynfWqXlGhMPc+b1aQyzfeFnL2FQz2nRz1FvHa6EFomZexXr7PPeZ7DQtGClAeiRWR8iAd1T6afvMX3w3ab5zi21TgptSZlfMpVXcDT1Ew+C1KYRhAdHdmb+8cBdwUyVtiL4G9Cq6SMnS/7qq6DsMtHUp0N7C51DQbKZJCscvUSvESQVeBF2iRl7FSfknXGdOjo6J3pEiIKqtNBJbScJ9hoxCfbRMFnCm2R1Apns6utfUJKzPHMd9YRccS9kNHpXCDqoVRRpU1LsXm56uUTUoytvupkS0EtjzQneFuAahvuW7SUp9WGuCCVQT4AicBaF8oZd3GCU9PVpXtU9JZIKTrx5VqYT0mBswmgT1uBlsIt4hS+fxdSGqFqteGNnVDvPrwpCCjVd1mgpXKCSoBV6/ExvQVSpXhOl6ACxZi4qOyEoyQUI4goAfWI5jdc6uLWANMNbcHRccyROboPiZGaJ4qSvPrCGSkDExmUpSovXmAQJJO9slhB5gWK0TwpoUgyF0t4IGhPT6pKl2ufHklBUKanc+44aAck1SdCwflnB40umyVlQD5bzoOCdAMwcuSZOFfVI6lE16mmHfdmx9tidk7QoF0xWWpNk8JpwnJmLjvM6ROZ7xLguHp9ndSkpq+Iw0nOa6wgZj+R7XcUkx+vP5od8lHQPXb1pytKmXv/EqKnKF5LQ2xdDB7cp0HPkQEnnzxWK0GByEr0RxlmYhAX7G4kh19feUdslminGfeZ2TOw7sGK+xjoBbx8d18f/x/2JeAX1lKXSgAAAABJRU5ErkJggg==;clipPath=inset(0.68% 16.22% 0% 16.22%);" vertex="1" parent="1">
          <mxGeometry x="498" y="264" width="30.68" height="45.1" as="geometry" />
        </mxCell>
        <mxCell id="B5A1lsXzcerOkvqFmVJx-30" value="" style="shape=image;verticalLabelPosition=bottom;labelBackgroundColor=none;verticalAlign=top;aspect=fixed;imageAspect=0;image=data:image/png,iVBORw0KGgoAAAANSUhEUgAAAJQAAACUCAMAAABC4vDmAAAAqFBMVEX///8AYIzmjwAAWIcAXYrligAAVoYAW4nmjQDliAAAUYMAVIX4483mkS3mkBOBoLhDd5vx9Pf56Nfutnc6cpjh6O3X4OcATID88+v00a16mbPom0bpoEzsrWPqpmP///s2aZJYfJ7L2eLww5SPq8AARn323MFRgaKdscTjggD77uHmjiK+ztqswtFmiqhslbDwvYgea5QAPHfnmDvyyKHts33zz7XmkDfdaXvnAAAKcklEQVR4nO1cf3eqOBCFEpMKthLlh/q2lVIUtaD1ta/7/b/ZzgyiYK0aAX1/7D179ryClOtkcjMzmVTT/kdVyHAWRbPEuzWPIlybmZZlGeuXyL01lxyJxfQMjE/iRN6aD0EIoCM2xAS3k1sTAkRc1814FOumyMzl356WfGG6SKUm3TTmGS1hjG48hh7YZrn5dzhiFtHiIrwtKa6L0fYntysMMpae3pCT5gKDZfHnrkWD6HeTMHTd22gE+pRekk3PJmMZMCGDIHDimXt9D4PZx1d7l0w9B2PC8tej9MoWkz5Iwt4Kk2aetWVmcHZlVR1ZOrP33ujFnPu+aVqGkavqdeXLddi3AQQDSpkkadRd2etcvvjyioOYTGAAf5YAL7X9bDQNMbseqy6sNMYxufRWOs9ora+nqrGhi/VRR/Yii2eBRPdapDSQcL48/hHZ1WkQeXAth0/4UbfK4C19nIrMupZnpaBW/OTkCh0aQ8u5kmbFvLwGHoYcTRj5+3WG0F0z3S8NYJikB1KJzFjMj67CCtSKBcUL8cRkB7xHLn0awm9y2whWhm6UTBUI/aBBUo5DyJ1r6HvI9rwKLrCDb04YLjzGVVgtwTIlL0r8PTfLIW1OsfwV5D019T29doR/eJrJpUlBc/OsILIquzrkqfpPQ9SlSciblwZH6OU0Rto/r3QUnrLmbRVZulWebsdeGZGtGk/GcLrtx6BHQLYSQdPFGhtUXWGeRxaxanghnJn743ccXWRlxI3xIUgTxk/lgRWGWNbo9AerAPRTV/ERGSOrk5FYNaSGzpVCOBngitPsFJSBztZKT4QUjB4P8KsCnMRX+9oYszbsVh64uuJsGqFb8UbdCrMtNVNJiFlhFWwyjklg/VM0lYemUn1IDTZEVYprP0UMjQ5gCF4VKI6Fg7rgNzkDQUCN08lWCQkuzUaTM9Bl6rlKl5abJiO+GWbLanUMSfGC3hAhwggcd6L2tVMcwMNZRl1YGruK/3mQDopVo7IAeshe1CZTajXtVfsV/3OAuv69dFojIKLkqhUMkoVJg1oVMNVYISvbKAZjar8f/Fx9eo9wM1PRExWQGGr5w+YpHD+rsRg0An2+4JfrTaY2cinYywXPzVAVzIbiKlfoFxWAcT9FNxqqsye+Prno+2JcxdbNmKrLL5h7CDnB8WtGFWyhGk/lwJWcsXrZbCDU5XwDj4rsTcQKnrg83iYBjRsQ0ITpxqWrvUte1UCsAEnW5UXDFXiVcOqkkyE19PXF1bkQ85oGyrMzXoEUFZMaSExhtSjXMZVa0BLyqtqX5X1S3kQpnqRgvXavAlLF4ZO2Eag8TnnNxdP3x99aDlyWXK0MQ3lN7V6ViuIXxZqY2spPJeP9RpWqCIuKLgPa21Na+SlbVioynwYsYLv4n9I5xfCKKkN112Zh+LbzLd60B6ksZ26Arl5zCuiwXYXYzziprfwYwdStVStjm1SGPu1UwXKmYiqJm8w1h6CgNPkeAuYCzI5VK46UQghnVmMM4+76Jla4ko1cU1WjY0H9J/6qNhGVscirnktMxSMslavFfa7JNh1Xy7poQZxgEQdqbQQl9ZS39ULHZ5u2OSetZRSxlkDzL8vkPPJ9xSxFprZhiKxtzqmlBwV3aNDsHg2BxOHQmfIOqDtbMZ+cy1zXkEx4PNtMpjiSbAbSY1zwfd3UZmgvYa2qCwR69igrpGRbpZg8XVYmCCMbzcVFZY+XBtPhy6HebGr2M1O94pj/siQGNWWXZrg7YKjGqfsnl02Iqy5PCGbYz8edqitP3j/M8sYS6YD1Lp7cEo0ljKp1hqx3Sze37u0xZlWo86TYUu5X3b+ZMW5ZeoFGyBir4K1uDB7K7YohqZvOyl15iaGWQ+wjgsXHqL1lJ9TNSoU6z4G1ovYuhoTxSl9URqBZVTzzIFzHrLa8ei9cNysr1h5cu+JvlCurgTaGVVXrR1z3ay+Mzi71VCndMEzCBCP42lvBUmVWbjhbrY3JxPd906dmPlF7ZTtV09Bk5BgWzw/s0fES83f9lW0FWyVd4RtbQkxYsEzY3Ua2UL1z5WqVHUMgPtw0nGWUJt6tDzauNic2fMO++jmlH+Flh/NWtzdPEUuqF1+np/5suBQtNrdjehmosNDMjk0FjLKG7OhvcipNe6EZaNp/1RDKJbESYvVXGSvKToVz9ld5VpidrWQ8/lsEFOFuUjajevpeJ9J1dhjvguaQBuGOqDB0rcNJ58LNTlRaTewyV4DXtWAi8oab/ZUho4CXjl26aXcUHdBVGXW7szND+UGvjEV+Y7zYYbC9WPrIhkXXFzxPsuTKNwDmt6QrNen6GbsKvfdWu4x5f3PjsXS59dQZ0/X59iNFWjHPk6xks9Gy345JzQSotydTxGGrfX93X0Ib3zh+xRuFO3d3rfkzmqvXgsvfSGkSjJXpFfXSotyLskkwDKPLpw7yDOfwhvbDryI+XuFGH27gnY8NHlpAq/0xzki1vpMCiQ9+JzkpBzcoRMlUHu1Ex+w0qQ941d3nYlCGpi3gzXetj872zqLzCy7Npz9aSsP8n3oRkdTaM3GHt/h2DO3N0BYnSY3fYOyeD9wY4ps/BsVLA/gCradjpHBfd0NKd4lDcab5aCh5BqnBUVJ7N/45TUrD7C8jhWdKisVn7Ao0ZnSMjkglgLJqhGmS4P5K7aQ0LyelxehD2wCCdux9bUfKgGy/vCu9nJjm70ZIaVtSqAy7lAd/wnV7SyrAFtLSc3gGxcJbSOpt2ggpbD3eHQlab+oyO1LsECmq373OkVX//TXDsFcjKdzWzwUUd1/o77qcQ0r7bLfv73eaPm+9LuoihQ0Q+Yk53I+lc75nkYLV5K21xT3q5bQmUnTaM1N5j+fNFueRAiymwwyvz214YWtQEylp5s0M5MOJEqkdxv2NbNdCiho/8HAostt0a19ASvsCU7WHdZFCAcVDKCicmz6WS0gN90kNXt8Bw7NI9eCD4yIp7BtggcyFszZS2uIB46fXM0h9/hl2vp7GRVLYLmKlqAd5wnNCPA+S+mwXfOqD1GGA3t9+zxZkIDM4MLLEvt97Hb5/fRVJSRsildjB0M7bI/WCnyqVbrs5qXEJiyFGTfNFHro8Z1r6jKHUnz7e+tRoFbi7/7MYlB7VtOlX7+nzffFeJKWl1HpcONW1JeXqGHEFzg5UMoFbi38finijSO4dH+63kdUjXv14wKCLYs9HDGY6GJK23t6KT857SGrYH2Skdpuva8oL2bbxHEhtjpC78YQLwbagPwxHpB7v99Cev1MkPu7PW7tQGBnheGaW69zP9x8DUoN/etPF9HVKpLb9Q67DTcsMtjFoMZ7yRi9OENB/+L+tpd4eS3j41d/mKZ3nj1zrH98ekNljvjKOh0+/HkqPAilt+tSB+Yd7EYCtw8okTQs1ZLxXbKR0d8AYnsNz404Zi3HR8wa9aYZObzHE/OJtl1mNF73Sk/jg4uvzQMBxNnD2cbVEe4pRTrtT4aWnQI2bitl/h2KJr7ooeHtIwNsuaPsb9EHb+4vTHzwLATeK4PjXD0XdvaTKpApbYFlblmXcvCb4jVQ8a7DU/B8s3+MK++OPGQAAAABJRU5ErkJggg==;" vertex="1" parent="1">
          <mxGeometry x="320" y="265.1" width="44" height="44" as="geometry" />
        </mxCell>
        <mxCell id="B5A1lsXzcerOkvqFmVJx-31" value="" style="shape=image;verticalLabelPosition=bottom;labelBackgroundColor=none;verticalAlign=top;aspect=fixed;imageAspect=0;image=data:image/png,iVBORw0KGgoAAAANSUhEUgAAALEAAACUCAMAAADrljhyAAAAmVBMVEX///9AQTeDzSknKBmysrAzNCjg4N94yQA7PDL4+PiPkIyBgXxUVEwsLR85Oi9xxwDX19bd8M3h8tPJ6Krs9+GT002d11/n9NqO0UKoqKUREwDv+Of8/vrBwb9+yxn4/PTNzcyY1VcLDgAhIxCdnZlqamS945nu7u3U7b2034ii2Wt1dnCJ0Deu3YBhYloXGABKSkEAAQCo23Y3WKgfAAAFqElEQVR4nO2ZaZeiOBRAWYQAssjiVkiQQhEUlfH//7gJlGCQRKu6xuPpOe9+6S6JySW8hPeiIAAAAAAAAAAAAAAAAAAAAAAAAAAAAAAAAADA/5mRsXu3ws/Qx3I1erfEj9DHiphWa/3dHt+nNhZtebx+t8i3aYxFURH/mnC+GovaOXq3yjdpjUX5b1l/YPx6wPj1gPHrAePXA8asIb6Vsay+3d1/YbwKQv7FiXGIniazsX/MnztPluvnxuvN6OlwQbFI/Jhz0agURTuoj3vIE4yk/fzJOJvKEse68NB4NxYte7t+3FG2QI6Dpi7jkh6JikY6t1PjwX0HM4QlScLoyLvtpiur7kqRl6bGNdaXaX07mjzmR+LKlRCehe4UoeEcrQ/ptXfRqkacToIM1741qPR54UW6antquxwY65Epd42WnOHcC0KznPwnzkqEsoC+phrK9fk1Cbi1ZWXgK3+KpA6Mkpw1jGpoVFcc48lYsW/DySfWcGEmOWUbwV6Bnal/Wz6bStF6I5BwHty3m3QTfHXG++E0j6qh772xbtw1su3h6vFJAB9v07rypg5eeF/fj2x5OIby0a/Nwr3T922cnaIXzvpaY3R1Z6yPUmvQwP6nNxwJYAcnd/ORL7BTh7N6kDXGGGQU87bTxZk09G3CeUHtdOo4ZXdFG6+3KbOJZd52ulVGAtgfPL8wKx3JFTbsDuppNrtHlTtM3yacu0WsVsO5GxirzKhppjldt408jNnr2juiRDDoHjR6jrSbsY94xhLy2kaT3r33ZvtmPJG5jdKukesktOdq7rre16OcLzBtrCnmVqT+/KkxJaPZJrUbcIwV8UQNRzVynVnzbzBFoRAXTsMsbIwlytiqNqoebbtH+wvjuqulaTFkqEbyabSLqFXENl5dUHkpsuMCLYI7Y2vcCO5G7Qd/bvzRdKVuPodvkK6RLTfvqV1ktc/ig2GMQ7eU8nglxGGJsr6x0r2c23j8c+N1+0k1eEt3jSrim0tZLOxOjbKtnLr9jTbOcRlfHUhmQBtby7a9/vE7Y/vU3jsjd6MaxRdEdsewaaRZJ2rLpo29Es981wtiIYyFNxsHJfm64+kHRbTEDf0CoY0Fn6w6JE33RZ2/vdsYX43Pdy/pnrEwLxLcWPvvNg5nmGQqc90w10If2jgOm504zEnr+auMzc74wDXWzB2pZpKCzKE+yMcp46Bw2te1Q4Z6jbFoX5P0nXH9gLm7HcjMclJseo4zNP3aKzznZXNMdsqq7iwylQfGJKPlVh+08bzEi8L3s72ELq/a3eqvplV0Ot+yBs5b+sypPnorb55IqF54ZcHf3T5/bVwXFlRawc2EyIuaVVS6zvRmTJJlMsWZ34xDZrwzPned6mf73pifbZLtqZM5izxSyriXr9nMYnou4UsgXDOh3q3MumzTtje3m52YTRFFGcdHzM7osZR1Gf3uYNlMX43KtIWl0m9kK4xw9jHC5AWeS4iucUJSqZZhY6yId98ieZdGG5OVumc4Y+nYm4PopDCKEMtc0o9eHYv9pF6Rh+Ec7CUHJRjNKN8MOwtyG8RYS+uNpo+6sZWeMamkk/tgRvv7anq3HNQhim3cV53RfaGWbofTnF+Qg2ZdabrKEwcfm3rHOCvM6J9sP6v+ULHfK04RyhmnLOr4s/fUz9vJsNEukukbsz9ZhzpxMJ93A3gzUv27XwEYcX/PHF6JL12BiqWCc/g2Odmts2ZXnJ8e9U0XGoo9PGloCY+ojoPw6OCSeTryHHf/dYqFLx63jT46fT11y9zwT6iuJzG2NQzJG96lnlpfcsrswQHnY2J/QbLa5PHpZr0KiIvBCAgKEs6KbD4+3azDFyF0fHYy+ZCwQNzT0Q51+znIyAbo0Yl35HYj9qXE/faJ9W/4W37tBwAAAAAAAAAAAAAAAAAAAAAAAAAAAAAAeMK/4Hh8iO1LmxIAAAAASUVORK5CYII=;clipPath=inset(33.78% 0% 31.08% 0%);" vertex="1" parent="1">
          <mxGeometry x="135.5" y="277.26" width="67" height="19.68" as="geometry" />
        </mxCell>
        <mxCell id="B5A1lsXzcerOkvqFmVJx-33" value="" style="shape=image;verticalLabelPosition=bottom;labelBackgroundColor=none;verticalAlign=top;aspect=fixed;imageAspect=0;image=data:image/png,iVBORw0KGgoAAAANSUhEUgAAAQ0AAACUCAMAAAC+0owFAAAAtFBMVEX////qUQ0AAADqTwf2u6vqVSD1sp7pTQ7pTAD+9vPuhWToQwDxnYry8vLJycn7+/sfHx+8vLxERETe3t61tbWkpKQ5OTnS0tJycnIzMzN4eHirq6sTExPDw8Pp6elLS0uampoqKiroOQCFhYVpaWnnLQBXV1eRkZH3zL9hYWHvhmz3xbfqYS7scUvypI/rYCf6183oRBXraDfqUS386eHqWjzteFXrZEn74NbwjnTwkn7qXDNXW7T/AAAFsklEQVR4nO2b6WKiPBSG5QAapIrijrjhXpexHeu00/u/ry9hjXTaYjtav+n7/LBAgiaPWU6CzeUAAAAAAAAAAAAAAAAAAAAAAAAAAAAAAAAAAACvsbgtZuB29dXlvAxagWXAzH91OS+DpqvKu6gF2IAN2ICNGNiQgQ0Z2JCBDRnYkIENGdiQgQ0Z2JCBDRnYkIENGdiQgQ0Z2JCBDRnYkPmbNizr3KU9N3/PRn84b52/vOflpQ2VMfFimuZpNspE1fOX97ykbDDPM/W1zszNdrvxvrcN5v3Y7vaGoeh5w7IMbfrSRs0ZH/eHvuP0/IN/zIZqrnf+tfz0Jkjcei9s9NJ1rhE1/INP27Am1P7UG3yexAa724bX7n/ugwPLvKSNkn09NtjPhTjfP2pb9hAmWjr7njaYLn6UYKwOfBhlD0aQaLDvaUMtaPzk8dY0+amqa2GiFzSO72aDrbVdbn/wwoZy7w+nO/1ZW7PTbPRb5XKtlOWTS7UWpy9dsMn5fIU+RWBDNb27h6diHG+x5xtNu7n3VtbWzG7D7bXGS9u2Z5NhXMmW067Fefvjds+P3kvVuTOZDWx7sHTqUSq30XQC5uL92pNElTUJ5/Hz4ttgZlHTbqdJ8KkwpuvM40PJQvSVrDbsJgW4dlT2qkvlJO+IGr6NaoViRlH34DYimvy0TpR4LJHbOEPt0wgb7HnFy2jtpoqEqiomn3L3t2b2nkI06Nb6/eqMH4U6eL0lG83QBq/ppNviWctj7mUSpHIbg3pX0OjlXtiodM9S/2O4DVUNAw3NU45QdX5xe4KNWVT86ogoGDxes9GMItr+MjKXGkW/yAZ7CIMtgx2v4NQ7nqBl7ymUdO16hQb+wWs2OnF832qGWa/Exq/w2Fiz48ZR4AGZxrvMB2bYCbl+fd+3keONIxhar8NG0jb+ZKPwIRtll8TEkMXGnMg/uQ4bqh7WNT1uKHePp/UUKcVyaSb+ZrBRd4Mudh02xJwiDld6qmmoBR6h508YReUUPnCIcTSDjV6F/JjjSmzwSPQpn39Ky1DMA+89vz9oo0m2CJ4y2GhdmQ0efnnTqZK24fH4/HHzsZ6SG5AtKvO/tHGvPRpGEn2xKcc0efoqFZnzOteP3qD177UNxROr1oUXtg524LOMUfTWuf0mtWqLKx8R60nZCEfRaFDwOdVGkueyNpgiVq153Y+/2CFIK3raylOObdRcGstLVGtOlUDCsY2+GwTcrVEw0wY3n2KDt6okmrusDcUsiqBjsSmYTDWD7dGc4a1/pPc3eCDdkbeJS6MoHj+2MQyXWf1OtAzJvWeDDzUz6Z3LTRrGj6subEPxnsSG1177XVS8KFExX+x9WQ2iufRMrUs0Dk6PbPSbNAqakE2duC29a6Mplay2JPvLbHAdj+KCtd/ENlSmpG3kajZVkpGAK+j04sPYRr9NFJZ+Tu4wvvdtG22qJOOm6IPJkGNd2gYPLzR/P/TGWwRp+yg2lW2IxtGZB193qdtMWkpiw+pN3Lh/lFyqNMJtm1bnTRtVorafs+Tnatk06obtqnZxGworFPO8fRjmL9+KcWB/sJEr8e+MZs6wMRwvXSIn6gfcxqA9Hg755Q5Rsm/FIxR35oznY2cyc9+0wbuKOxsP587M9WflBhe5dOb+nVzpeUX4HD1rU1nheVO80dlmZeR2h3gv7PjJo8UXFryGrngNaycoB7te/mW3K8075VGy0RX2n264wo1uDL/3UkfcK7LVgw+SbnQv8SAv9RxWFf/TJ2LTuzszCU3Tz2Etf3eLt4WG/BuFUnm+bPpbe9XjbWKr7Aw6I3vp1Gth/lqjnux59rvd6MSqTjo0WiYu60t71BnMxlL2c/LqLxbky/g1iwIbr/FtbBTMLHwTG7ubTCy+upyXwTKy8dXlBAAAAAAAAAAAAAAAAAAAAAAAAAAAAAAAAAAAAAAAOBf/AZ3LhHNPhqeeAAAAAElFTkSuQmCC;clipPath=inset(23.65% 17.66% 27.7% 17.29%);" vertex="1" parent="1">
          <mxGeometry x="564" y="370" width="109" height="44.85" as="geometry" />
        </mxCell>
        <mxCell id="B5A1lsXzcerOkvqFmVJx-34" value="" style="shape=image;verticalLabelPosition=bottom;labelBackgroundColor=none;verticalAlign=top;aspect=fixed;imageAspect=0;image=data:image/jpeg,/9j/4AAQSkZJRgABAQAAAQABAAD/2wCEAAkGBw8PEhIREhIPFRASEBAQEBIQDw8PEA8SFREWFhURFRUYHSoiGBolGxUVIjEhJTUrLi4uFx8zODMtNygvMysBCgoKDg0OGhAQFyseHyUrLS0tLSstNy0tLS0tLS0tLSstLS01Ky8tLS0tLS0tLS0tNysrLS0tLS0tLS0tLS03Lf/AABEIAOEA4QMBIgACEQEDEQH/xAAbAAEAAgMBAQAAAAAAAAAAAAAABAYDBQcCAf/EAEEQAAIBAQMGCwQJAwUBAAAAAAABAgMEBREGEiExUXEiMkFSYYGRobHB0RNygpIVM0JDU2KiwvAHFrIUI2PS4ZP/xAAZAQEAAwEBAAAAAAAAAAAAAAAAAQIDBAX/xAAiEQEBAAEEAwADAQEAAAAAAAAAAQIDETFREyFBEiJCYTL/2gAMAwEAAhEDEQA/AO4gAAAAAAAAAAAAAAAAAAAAAAAAAAAAAAAAAAAAAAAAAAAAAAAAAAAAAAAAAAAAAAAAAAAAAAAAAAAAAAAAAAAAAAAAAAAAAAAAAAAAAAAAAAAAAAAAAAAAAAAAAAAAAB5qTUU5PUk29yWLA9GrtmUFkpaJVoYrkhjUf6ccCgX3f9a1SeMnGljwaaeEcOTO5z3mto2ec+LGT3J4dptNLtz5a/S92jLmzriU6st6jBeOJAq5eTfFoQXvVHLwSK/Tues9ajHfL0xJELifLNdUW/M08WPTO62XabUy2tb1RoLdCbffIjzyutz+8it1On5piNxw5Zz6kkZFctH87+JehP4TpXy5do0sp7c/v5dUKS8Inh5R238efZD0J6uihsfzM+/RNDmv5pepP4TpHkvbW/3Dbfx6n6fQ+rKO2/jz7IehsvoqhzP1S9T59E0Oa/ml6j8J0j872grKe3L7+XXCk/GJlhldbl95F76dPySJDuihsfzM8O5aP518S9B+E6T5L2908trWtaoPfCS8JEull3UXGoQfu1JR8UzWyuOHJOfXgzFO4nyVF1xa8yPHj0mauXazUMuaD49OrHdmzXimbayZR2OrojWinsnjTf6jndS5qy1Zst0sPHAiVrNOHGjJdLWjtKXSi818nY08T6coue+69lksyTcMeFTk8YSXLgvsvpR1Ky11UhCpHizhGccdklivEyywuLfDUmTKACjQAAAAAAAAAAA81IKScXqaae5rA9ADjNam4SlF64ycXvTwPtKvOHFlJbm0T8pqHs7VXjtqZ/zpS8yVdtlpVaUc6KbTkm1oevauhnZPcefl6qDTvesuWL96K8sCRC/ZcsIvdJr1JtO4KU3gpTjox1p+KI1fJ9xbSqLQ+WOHmSj0+xv2HLCXU0zIr6pbJrqXqQpXJV5HB9bXkPoK0YZyUWuia8xubRsFfFHbL5Wevpehzn8svQ0zuqvzP1Q9T59G1+Y+2PqSjaN19LUOc/ll6D6Xoc5/LL0NOrptDWPs5YbcY+p5+ja/MfbH1I3Ts3Dvijtl8rPLvqlsm+pepqlddfmfqh6madx2iOGMYrH88fIbmyXK/YckJdbSMM79lyQS3yb8kY43JV5XBdbfkSLNk85NJ1Et0W/MHpEqXxWepxW6PriQ6tonPjSk97eHYb+dw0oPBynLDDZEx26x0qVKbUFjhgm+E9LS0Y7wNBg3q18h2Ox0VTpwgtUIRgvhil5HKbkoe0tFGG2rDHcni+5M64Ya14jp0JzQAGLoAAAAAAAAAAAAKd/UHKJ2eCs9J4VqkcZyT006erRsk9K6Fj0E443K7RGWW03aLLK1Uqtqk6clLNjGFRrV7RY4pPl0YH3J6fBnHZJPtX/hVrvfGW4sOT88JyW2Hg16s7JNvThzu93WSyvCS613H22LhPpSZjpPBp9KM9vWlPoH1X+UYmUNNOXxeBDJlj4slv8AAZcGPKGACVUyn9U9z8SGS4/VdviRCItl8fYLSt68STb3pW5mCguFHejLbnwlu82PpP8Amo5AvK/I2TDg59RrRHHNSXObMt422NCDnLdFcspciKHaK86s3OWmcnydyS7i225jF2uq91as55ubOLWdHHFYPU0+o8X/ADwppbZrsSf/AIfLgu3/AE8OF9ZPBz/Lhqj1YkfKGemEdib7Xh5EVH1IyHoZ9ri+ZCc+7N/cdKKP/TqjjKvPZGnBdbbf+KLwcurf2dujP1AAZtQAAAAAAAAAAeK1RQi5SeEYpyk9iSxbOGXtb5WmtUrS1zk5YP7Mfsx6lgjreWlZwsVoa5aeZ1TkoPukcmuOzqraKFN6pVqafSs5Y9x0aM2lrDWvuRdJ5PqzXZi1/vSlSrVXyrF5qh1KXbiaG6Z4VYdLa7U0dPv6h7SzV47aU2t6WK70cooTzZRlslF9jJ08t92etjtYuBMtumMX/NKIZMqaaS6MO54Gl+MZxUMl2D7XURCVYHpe5DLgx5RWD1UWl734nklVMX1X85xDJj+q6v3EMiLZfGWyLhLr8DzeVaMHKUmlGKTb6j1Z6kYtyk0oxi5SbeCS2so+Ud8u0zajiqKfBWpzfOfkh9TJvEW97xlaJ52lQWiEdi2vpZv8krl4P+pqLkfsYvs9o/Lt2GquC6Pbyz5r/ai/nfNXRtL9NZtJLoS8ybUohW77njVf5VFd2PmWQqVtnnVJvbOXZjoFUi+f0/o5tnlLn1ZPqSUfFMs5qslqOZZKC2wz/nbl5m1OPK72vQwm2MAAVWAAAAAAAAAABpssqDqWK0RWtU8/5Gp/tOR3NaVRr0aj4sKtOUvdUlj3YndJxTTTWKaaafKnyHEcorplY686LxzU86m39qm+K/J9KZ0aN9XFhrT3K7c0mtqa7UzjVak4SlB64ylF708PIuOQWVEasI2WtLCrBKNKUnoqxWqOPOWrp7SvZTUcy1V1tqOfzpS/cRpy45WVXVsykrd2WedCD2xi+42FHTTa2Z3qaa5p40o9GK7Gbmw6VJfzSbZcOfHlEJFhfCe7zRHM9jfC6mLwjHljrrhS3s8GW1LhP+chgqVIxWMmklrbaSXWTC8p0/quzxNba7VClHOnJJd7exLlZrr0yrpRh7Ois+eC4TxVOPnL+aSo2u1VKss6cm3ybF0JcgkWs3Tb4vidoeCxjST0Rx19Mtu4+3LdErQ854qknpfLL8sfU2OTuTDrP2lbGNNYNQ1Tnv5q79xZIQUUlFJRWhJLBJbETuX1HylTjFKMUlFLBJakifbdCiv5oRFpLGSXSvEz296UugreUTiolSeam9ib7EU7Bve/EtN6TzaU3+XDteHmaO5aPtLRRjtqwx3KSb7kxaYx1ezUsyEIckYxj2LAygHE9EAAAAAAAAAAAAADS5UZP07dTzXwasMXSqYcV8sXti+U3QJlsu8RZv6rhN53dWss3TqwcZLSubJc6L5UfZ3lVk8Zyc3gljN4ywSwWnl6ztl4XfRtEcyrCM47JLU9qetPpRzfLDJOlZMydKU82cpJxnhLNaWKSevbrx1HThqzL1XNnp3H38Qbov6lSi4zU9MsU0lJaktvQbmx5UWSLeMprFfhyfgVCjdlWo8IJN4Y8ZLR1mZXDa28FSlj70PU12jH1usdbKWy4vBzaxeGEGvEj/3bTg8Y05y18ZxhydGJpnk/a08HSafTOmvMkWfJe0SaTdOOLS0ybfch6Npu+27KmvUbcVCGOxZ8u16O409otM6jxnKUn+Zt4bthaFkhCDWfVlLRjhCKgt2LxNjZLroUuLCOPOlwpdr1CbFuyqWG4bRWSlmOMOfPgp7lrfgWS7bkpUMJcepzpLV7q5PEsFf6uPw+BDIl3RkmWPRGT/mohkyjopv4vDAhkTml4jLZFwl1vuPtrfCfUj1YVpe7zMVZ4ye9j6fy1N/zwppbZruTfoeciaOfa4PmRqT/AE5vjJGHKKemEeiUu3BLwZt/6dUcalafNhCC+Jtv/FFdS/rV9Kb5RegAcjuAAAAAAAAAAAAAAAACuZe0c6y53MqQl24w/cixmtyjoe0steP/ABSkt8eEu9E43axXOb41zW554VY9OMe1FpoPCUd6KbZp5s4y2Si+8t6eB2vPvKRblwluMNN6VvXiSbeuK95ETInCcuUq3rStzIpLt/2evyIgx4MuUy0/Vx+HwIZMtXEj1eBDGPBlymLRS6v3EMl1dFNfD6kQYmSXYVok9xEbJlDRTb970IYnNLxFcvyeNVrmxivPzLh/T2jhQnPn1WuqMV5tlGt886pN/mfdo8jpWSNHMslFc6Ln80nJdzRlq3020J+zcAA53WAAAAAAAAAAAAAAAAHmpBSTT1NNPc0egBxirTcW4vXFuL3p4Fts886EZbYxfajQ5Q0cy014/wDLKS3S4S8TPd97RhGMJKWjRnLTy7DtleflFntOmEXu8CGfad5UJ08FUhjsbzXr2M8p46u4YoyTbZxYv+aiGTLR9XH4fAhjHgy5TLZxY9XgQyZbeLHf5ENIY8GXKZa9EYrd4EMl2/7K3kRjHgz5TJaKS6Uu94kGcsE3sTfYjNb7bShFJ1IYrDRnJvQti0mjt17wcZRgpPOTWL0JY94hly0jbe9+J2OxUfZ06cOZCEPlil5HJrpo+0r0Yc6rTT3Zyx7sTr5hrXh06E5oADF0AAAAAAAAAAAAAAAAAAA0d/ZNUrW8/Fwq4YZ6WKaWrOjy9xU7Zkda6fFUKi/JLCXZLDzOkAvjqWM8tPHJx+0WCvT49KpH3oSS7dRHjLDU+x4HaCPWsNGpx6VKXvU4S8UXmt/jO6HVcmjbayWHtKmGzPlgeleFb8SXczpdTJ2xS10Kfwpw/wAcCPLJKwv7prdVrf8AYt5Yr4KoE73tEtdRvqj6GP6Sr/iS7joP9n2HmS/+tT1PsckbD+E3vq1f+w8uJ4MnPKl4Vpa6lR/EzBOo3rbe9tnUKeTNijqoQ+Jzn4sl0brs0OLRox6VSgn24EeWdJ8F7cnoWapU0QhOXuQlLwNxYskrZV1wVOO2pLB/KsX4HS0sD6Vurfi00J9rQXDkvSsslUcnOqk0pNZsY4682O3pZvwDO23ltMZPUAAQkAAAAAAAAAAAAAAAAAAAAAAAAAAAAAAAAAAAAAAAAAAAAAAAAAAAAAAAAAAAAAAAAAAAAAAAAAAAAAAAAAAAAAAAAAAAAAAAAAAAAAAAAAAAAAAAAAAAAAAAAAAAAAAAB//Z;clipPath=inset(21.56% 17.11% 17.11% 16.67%);" vertex="1" parent="1">
          <mxGeometry x="710" y="249.9" width="65" height="60.2013422818792" as="geometry" />
        </mxCell>
        <mxCell id="B5A1lsXzcerOkvqFmVJx-35" value="Bucket" style="text;html=1;align=center;verticalAlign=middle;resizable=0;points=[];autosize=1;strokeColor=none;fillColor=none;labelBackgroundColor=none;" vertex="1" parent="1">
          <mxGeometry x="680.5" y="309.1" width="60" height="30" as="geometry" />
        </mxCell>
        <mxCell id="B5A1lsXzcerOkvqFmVJx-36" value="" style="endArrow=none;html=1;rounded=0;exitX=1;exitY=0.5;exitDx=0;exitDy=0;entryX=0;entryY=0.5;entryDx=0;entryDy=0;labelBackgroundColor=none;fontColor=default;" edge="1" parent="1" source="B5A1lsXzcerOkvqFmVJx-22" target="B5A1lsXzcerOkvqFmVJx-34">
          <mxGeometry width="50" height="50" relative="1" as="geometry">
            <mxPoint x="554" y="260" as="sourcePoint" />
            <mxPoint x="604" y="210" as="targetPoint" />
          </mxGeometry>
        </mxCell>
        <mxCell id="B5A1lsXzcerOkvqFmVJx-41" value="" style="endArrow=none;html=1;rounded=0;entryX=0.5;entryY=1;entryDx=0;entryDy=0;exitX=0.5;exitY=0;exitDx=0;exitDy=0;labelBackgroundColor=none;fontColor=default;" edge="1" parent="1" source="B5A1lsXzcerOkvqFmVJx-45" target="B5A1lsXzcerOkvqFmVJx-20">
          <mxGeometry width="50" height="50" relative="1" as="geometry">
            <mxPoint x="169" y="500" as="sourcePoint" />
            <mxPoint x="424" y="380" as="targetPoint" />
          </mxGeometry>
        </mxCell>
        <mxCell id="B5A1lsXzcerOkvqFmVJx-42" value="Windows&lt;div&gt;Linux&lt;/div&gt;&lt;div&gt;IOS&lt;/div&gt;" style="text;html=1;align=center;verticalAlign=middle;resizable=0;points=[];autosize=1;strokeColor=none;fillColor=none;labelBackgroundColor=none;" vertex="1" parent="1">
          <mxGeometry x="134" y="576.9300000000001" width="70" height="60" as="geometry" />
        </mxCell>
        <mxCell id="B5A1lsXzcerOkvqFmVJx-43" value="" style="rounded=0;whiteSpace=wrap;html=1;fillColor=none;labelBackgroundColor=none;" vertex="1" parent="1">
          <mxGeometry x="34" y="120.00000000000006" width="760" height="360" as="geometry" />
        </mxCell>
        <mxCell id="B5A1lsXzcerOkvqFmVJx-44" value="" style="shape=image;verticalLabelPosition=bottom;labelBackgroundColor=none;verticalAlign=top;aspect=fixed;imageAspect=0;image=data:image/png,iVBORw0KGgoAAAANSUhEUgAAASIAAACuCAMAAAClZfCTAAAAzFBMVEX///8lLz7/mQD/lwD/kgD/lQD/kQAAESkNHTAfKjoAFywAFCrg4eIhLDsZJTatsLQIGi4TITMAACEADSbExsmKjpQAACL29ve8vsHn6OnY2dvNz9Hv7/ChpKl4fINZX2lIT1prcHg9RVGkp6v/6dL/5Mn/9en/8N+SlZuztbkvOEZjaHE4QE3/3r3/s1xscXn/pTT/zpz/167/rEpTWWP/vnn/yJD/w4X/2rX/qD//oCKNkJaAhIr/tWP/woD//PX/0qMAABb/u2//r1KK4yUlAAAUaUlEQVR4nO1dCVviShZtyUaIBEKg2RFxAURoUBFEEV/7///TJGG7dWsNotgO55t5MyNJpXJy6+5V8+vXEftCrVqqd14a571e70+j0MnkK8VDTyk+yvl6odds3QS4bZ69dEr7eoly96WZtZys57mua9vBP1wvmbKck/OLyn6e8BWoZc5dK+WFb5AOEbyIl3Wckz/16scGLncbtp907RMG0q5neQ3BA04zG3TzZZXHFavd7R01pRmelrZP4c6lmGnmkm6a+RJJx+lllGbHQLne8rPMgcETnJM6R1or/2WTG6RyDfkDO5YD7yjI76g1ffCQXId9USGVZX7kNeyk38zIH4ZRzLRynpCeNUtJp84c4dkjrnPY8wfo5siRffm0Wy7xqresawq/yYlwWLKk8yNRfkklVfhZInnDEvEOmllS9tAb9MT0ieyOvEXe0GRcYidV38KOoZVqDV+BeDg3lojnU+RFqZL4qac+HtaXmYNzQohO3D/UFQ1f/Uunc5IZblHyXfl4CKlzapgiWjcufQmBC+pze+wVvEWWvD6JV2atFe9T5xTVdjUnH4tG8owaqIl0pGSlnVMfxu1JZuqQ1/voDctsUyx4CUV99Ce+DEXDU1JeR2JhnQqfa9NLQkIq0nZ2EzGUjMmQVNDXuI078JqBCzQQVi7UOhBeHcIXk/pAzhSty6Id+0VseikwcaKu4Ejk8AshEyX+Rl2G5RGTWkSkIkIf+Ksh8K6Zf1eliHV7OnDXk9lUKpXNJj2eN4kF/VeBnGTaFT22wXgjV+hvIpOZviF+7aTo8U7sIOjwfc8+sd3gP4OginyXXSmyPcc66RUuuqV8tZrvZjqNW8thepUOMppYnVoiI84SXrFnhFSR9wx/PKWNjp31H4LQdR3YFMuVUuf8BAYQu1AU0JPsXdABcbVz49ArHX1H2ihjbQVQY6iigFSRFW6RMyA/wAOenu03S6xQqVZqpC13R4rSSf+2w/U4800kIwGcPHkNMo62wIiXstRoAbICZ66IXGsb/ljFjHu3At+5+mJF1k/Voi0lPu35rbrYk+o6eG3YD+QV+L0t/mAFppPnvvDvQKqI1Fs9JERZWRSdubVc2xeIOUTo8dkpryA2uCFOKcXtkxkMbHMEyqjFtNB2i/90RGoKSjBeth4dmlCovjwo5BYiZP5z/DO1aIXyZbCVPhN6LgBFetUuOefnBRGpOeIdSA9CHhDHRKWqnK/MIMuK9R2aKl8ZVVkmGssGASQopBpBwYwsgv5U4PWBQoYyFnjeONCAwyE9btSE9Fy2C39EPonQIfts4IwH1ja3IsMMAGy0fQ5uwAZgixdSUIgVWRRJ2JcDaWysjJB7l+QpI6CKkiWowXzeg08EfvEp6Q/wRfFLgOyKi4xChZwszzerAIqsMuTV4cgdWsKkV4o0m8hl/QKglUZxgKTMYY9ysSUliOTgG/LkrkuqIjJVlP9WFKFlT8UgKDrlCAWwQIHigPlKnhEkx0X+E6LowAsNZzyw7sCzZQsF8A3CTw7sJC89QKoiNCyKn0WBz1cAufrY1yuSC4JtoaB6DY0ezKKw02rIaUWFAKSuT7KHra6jpJCPi6iIQqYygum08II84JWdViN9Ury8ceDDNaRfgzpp0qj0BcomOqyAGyiWSN9Dz5mdViNzCNiOUjkvS636/UlAtR0qh18jc1tM1Qn02VKr3G7/wI6vUKUX845TmKJw+PPRlVCEYhSWMoJCs3xb6Drj0k8IUtnQKp3KPrm3u3Y27AFoNjRFaCU6tOqEQyw1K/EXRgxKii69FlG6Lfw0qR0aG/YEKUXI+DCUEfDQVyUC6Duz0mqkDWCkAxjFgtQtN2vwyZBShDwnhjICS3H9K6g7svo9SMFkxHEVRirctlpd+sovgJwi0i2gSkmEM70WCCgF9NIkIz9mXfuMVUWzs8mXDzal7QI5RcjXzVG/Awc8t6ID+j30OiJL4VmWbJQ5nQmuZRf2z1KxUqq/9B6arVar+dBrdC62tahfKhShWlEKzxAE9ptFBRUYvTTJfC/lrUZ45vUVpV3HbexRLRXzL7dR1dK107Yd/DvsBc06VqrZuKhSxodDEennUW8M0mnexgcEGQLaTyDEkpd1YxcMViylrHNmVS028j0/xSlP227S8W8bmVOpX4RZpJQRGGBr4GH2GQct5MrlpTrKlrA5wc36Z5mPOt11OyXpown7TVH9i0URasZC6hfq3u2agZ4P9hPIVCbLtYwgbZSyk1bz4gMu5UUyRrejmCJUPUbqF6bTtvYdEoejUKK3i90DGiEv7+Kzk78fdvQETlup3XpomBSRzjDZn0Ck04CbDG5B+R4yjhflyypZhXYyO+t1dlBL9dyOfVhsishEM1JGYNVA8w2tVoq4gVRFwp7RWpNTnyOQ9nLPcUk659RGd6UIRu4nW+cnAjTvMJMCQztyUEIVyQqtdUupL9Hz4i23pmqrsjJFpIIllBGwiETEDmWFTKsRqkjUGBGh1lBqAE5bZzEEqRmvE1eFogohlh7MgIFQg+yb5qXVyCiemaIjcdrwVfYhuLa80WOFMw5DkdcYwvNcRnerkKJfhEogElwgT08KCzCDROKVLBhI9wSEqNVPLPFmlmhawi46gAKrFyrwILzWn0KnfpG5qHcKjbNbO/S5GUxxKCKTEyBPWkOZ/S3g4oS+DxEVMxr22agUbqSylP6txBHL3/JyZxnqzWuVUqdn+9iscigiPz1QRtDzJiUiDxYnTKsRbQKiNjaM03orJ27FTrsq+ojul3WtAt9Pr+VR+wGHoiJPGcF0Wo97C1DKZC5c0H/EQjnzYIl8JVeh2RF33Adf/EwcyJTJHCivRZ8IzoEyagJVhJzoFsjxb11oIuDboYhYLJ1neYFnMH2p7S9SisiXFXtP1SgiC1+bWAx6yriYDZXO7420EFIr7l3nIv/iOWxZIptKWaB288g32ilSRDrYGxUCvZ8sfhHwvbbai0jzslNFKqg2ksytjllZiwTeNadgMBQpItM3m9ogTKfhvE+NlVYjqKaTvHGQuaVafuXeOk6Kpz25NqwoUkSGDWtH54HO7G8BPtiGDKJp5qOF6NINHUdYYl+0jvdqKkyBdJz5FJH0r1cI+COVsCXUzrpzgXCwJDuNFNChKiWSiAbvClAxqagjjL/pjGh3WSkjyG+Oehg0XutAA45CNTPtgDzmSDIosmdKJlUhd70EYYpW3wqm0+iyO9Q7K4EmVNFeWqsojoQtEsjFUVvquDOESxHhYK8cHZhOY7TOQ2W0/FyE76AaU4mBC7fCwBj3h9PaQf4Ewe5OQtyWyggEeVlG3QaOvYxOYDElnVaYnhw1lBwTxjRdvKtFRRs206r39Fw8EZhOY7k4UGaWA8NIVJoqUgRqEhM2j2LHUckxQ0uZvyOB/ALR+8F0GitLD32uyJEmnDDBo2IBvbZw6zu2+SoU4cXJrB4vUfwNrotcNJhOY4oEiKUiL5Z4G+yN7wq1jtUlKIoUakwo0BdGTURGNRwcqGM2tUCdR9ETXKt727aAeg480ULDYT6vcx4AN14KrSAxfsAJjDDYnwNKTZj7h98wTqpICLQQBOuA2hrFNDIIzziLy7LdaxDNWG4DulScCBtGNwElRLATM1XEB7JSQqOPOwTlrhl9/oBQ/GGUHCgjkE7jbTcHHzjQVlAMVbf6yoH3JInUCwq3BDud1qBPhmBapjWIPTV+DegmngoDmTi7ReTldkwVMYC2v3P3zIWo4SZKmUnrMfJSjHbPDQjF6F1Ie/RRwZEoD6nYEiXgjT7iqAtXNCQrrccqSQq9FWI2YNlxD4KApLowDfmxVBEEypFJpJM6dMYRiFHxgb1vXLTdm3XqRXQT79MRmWJiR6jIeym1mgXV+O0Peovf4pWDTZpIG1XSnNcVrTT2gQUiX4Q6tWEFUaqomLNt128qOQUNnN2QWIEaVUTzOJ+3+JLjFRFEkkq5USvwY3Z8ItsKwvzpcnXaWU8qSjWqfcGXhe5n1DdLPjCEotZJ8uv+wpwU/YAI/FgC709ewROdOrD2BdOef9sRsFR8pg4+kau4PN014zro4MZy9ywHCaLWGz45BIJaysuJ8aUbn8i2gjDDDNzltOdYvQvWwQO10h/GaYY5uQpjHYGVTPUy1XKxWKyd5i8atz5Z9LWesX4RfQm8cX8JkeVkNr6Ky10oonA9x785K9RL1Uq5XCuXT6uleqNFldqjV1XIr1BpyuVDko7lpFKOlaKOIfXrtHdkCcSIeQyZKHdXYFkF8dlPjKMj0nZ4RJVj+Vbwr1TWYx9EJ+ibBGBuDODDembstxA9ial+6cz+FnmWERSninina8iQdpTc0Rqj/MaHH3V2UmKU4/sWFWoblERHMs9+Epzy84s+fUsVOcWdD/kYxzr+XpUl8C3/CdwvRscBaqFFuKVvkBz4yD5RS4a0r5zFrKs+wN6M+UKuHuF5SjgHdyJbNowbhCmdX7G1xfJtJGVYAnSFkokk2EtJBHeW8BszHB3x5l6GRy5LFZXFhzez4MXbGZrhes5b2MRx1KC3zXUkn5hqp5O4a7SfIE8V1ZqxVGrwNgrHcROoepKm2bTTIn2s57VsOJKOLcYuqKwk84PPqj2xFKKvrp1SlqR0inkatRjFhi94gO3cUJNcJkZchU26xSQ6gllWMawiofaaSu9QevCVdrEEb7PbLpDKWY7d7WZ7OWYMfea7ri8VoRDlh5zlrGBZuTOpEuim/NQGTu5cNWldrrd+S07GD97mYfcywWnBtlDbsO1mg8CQk4YoNZT3ChZPK2ucKr3vaTW/hvpBbyFq3UZ4/ifbl3azVrP+wS1plXovnQv89WQy9N59p/nSPeCJALuiXCo8eMutma4dwXW9rOW3Xkr7OSejWKmWupluKV/Zz3gHQq1Suig0zs+azXB/b+Gi9A/9f5gcccQRRxxxxBFHHHHEEUccccQRRxxxxBH/FNpXd4/j+fvTcDabDe/f55PR9HJx6El9FyyuRvOZYepGAG2N8H/oemIwujz09A6Oy8ehHpCjJZgIqNK1cfvQkzwgLscJncfOlibD/HvoiR4Ii5ECP0vok+Ut19eHnfLX4npsKvITwoju+Wuaw6sDz/vLsBjrhjI/oRiF6ujKDFadef//oZne4hEUUBQKT18P/6tmjn++L3A91OMRFFDUD+5brFamYTwe+hU+GVemug5awwgp+nWpr+40EneHfovPxILQ0isnMfASl4i8R44UBR74+jdNn/UP/B6fiEjpRsTouqkn7gd/J6O3u+lVhP7b6HWQMHXM0oqiX4vZWokFJP1Y47aYBcTM5q+j6VWbo3cX/QEiSd/Q8bRR9Jr59GNJulawSNdDwubpW59xvtX1P5kkFcygHOmA1UczcSQpwh0QI02Dv/ShSdT04Q9W3GJcA+dJuyd+aifgKtT0n+0CCABoMF7JnxZPhKYKSBr9fI+bAUgRJSZjM0GQZOiv/1dZgCUARToduk6x72SYg/+3BOUCShHj9/YMh8KBN/mTldJi+jgiRQWoa6St15hT0bCmG5Mfut7a4zC5b87h3662BBgj9m13jIDYMO9/oBMwfTKXa0Yfg7+OtutI5ykZerGtROlHpd3ar8ZW8ZrAdM+3wZjGv33Myqxohvl090O8gMXd0IRyYIKvvw1ADFEB5MpgJjADUZr/gNDkao4rIMByXW8dH12oXBbvnBxmIJ2Tf9oNaE80KoGtg4TrdPviumSoO14mPFhws8d/VC21RzNGiUgfgEvGm9c25txxVuAK0r/K0vVoyCqhaSaRtE9srtAVdModWyP9kyy12fyEGXtCb7Q3qkhLqIy7GIiKBkEIl3j9J7T35eOMU6LWTLSatl6RMVEbvJ8Q1uYCloz53bd2vRf9vxq3hG8Y2Gg9bX0l5dd6lVWfDEMfPn5TI9ce3Rv8FgfNHGA/bxugaQPmiOzHPFGlE5YwDd6+mWa6ngrEJ/q2CdrvedssGjPWV7/TFCrhgf5O/L37JjRd918D6y7sANHMMePG+/Ut2lPMR05MlXYBLVhz2vztwIvuejqe6bIGIk0fsr7m1rU2Y9uha6FtQzTp94/9g6jwxeXbPCGRngiGxs6BbdZZbCEKcTWUqiTAk64n5qOrr+SpfTceGvzmRWJ65itnkOH67niaaINpQp2kpTiZ2uCx/+nqaXEZsGOqsRMRNOB9uo3fKI89eHjTYvTARdMJ5Mk0hn9HfV4Z/UNYXE4n7zNB4yuLoCe+gDyu15n+AfkfxZjNdlqhfjIS7+M3bsNBTCza/dH4SYvIiTMfSe/LOj7TOQlZRexEUjS9iCkz8TSYjPq7cbW4vuqPJoOhZsYmR4GgTdZam+3IzQY7k7RiakmVrs2Gg/FkdDftX7bbvKaNxXW7fdW/G03Gg+FM001eq9QeCNqmZM09qM+3WIpbSNayUcwMEY45CzdiDMPtGGH2LvrrsoUs3IHwoYeZ0i6FxUpZ628fZyjAdLhD46D8PQjscWDDvJe7giunyIgRnIlxda/kcX8DBFb1r8rSWTpFH1dEAO3xh5TSF0HTE49KpuEyWmeasV9/d/E2i9vr/bUIC1uqNdIoaa3tQ1Uj0AWX7wNN117V31iP7viUGHzBrCocHIEAvccpsof9e5/EUIjLsfG9FlygoWejeErl1Qji/0+NJ/tzfR++0j4Qlh3i9x9cmXSadt9YTN+/AUsRPzstl8WX9CsspgNBNv0r+DFn37+cLqzJfC49uvk0+ia5cymWm5e/kqZweY37/1Znz6I/Vkoi74ee71ehUsT1dJz4XGmKSi6DQ5dcPojr/uRJMekenx19OP4uhbuP4vJtlX7fC1FRSs6czd9+3Mke7enkPcHdYKkqOWH16f717sexs8Xicvo4f0qYK6oUqzqrzZrGcP74k8khsIgOxBnMNGO9dZc4/GWVsF3t7TUS938nb/32t27R+UQsri/D7P3jZDKeD97f70O8vw/+jieTx7dp/4qb9z/iG+F/DK6ugKT9OJYAAAAASUVORK5CYII=;" vertex="1" parent="1">
          <mxGeometry x="750" y="450" width="60" height="36" as="geometry" />
        </mxCell>
        <mxCell id="B5A1lsXzcerOkvqFmVJx-45" value="" style="shape=image;verticalLabelPosition=bottom;labelBackgroundColor=none;verticalAlign=top;aspect=fixed;imageAspect=0;image=data:image/png,iVBORw0KGgoAAAANSUhEUgAAAO4AAADUCAMAAACs0e/bAAABLFBMVEX///92zd7T09M9vtEFtsYtFipHJkGurq5YR1QaABX+//uxqq/+/vwnDCazs7MAAAB+bntBHDt20eJSWGtDHjra2dtoU2S8ucFGHjtXYnkaBCssJjozIj0WFBUtIzsPDA2Afn8JqrmIhocuGTKX2OoVk6UwLi9ta2w8Ojs5JD1FQUKgoKA0FTC+v74eGRs+ma4kGzUlIyRopLdzdoOSkJFeXF2Fg4Q3VWpjYWIdGBpEEzRya3hycHE8FTRvYnJ5c4BOTE3Hx8cJqLg7wM5Yxddwh41ocGrr6+t6cXjd1NxWQE83AC02ECgrABuTho4QDh4kOEQZAAarnac/V2CBvc4OGh8mBShELEY4Q1pQK0xChZhTW2lTvtYAuMUjts1oy+BgkqMZUmYlQVZDNkAyWt3nAAAJVklEQVR4nO2djX/axhnHiaDRbNNTrVqxW4OhyiqwZdFqFRokygqFxmudLWuXLV0XzLb+///D7u65E5IwLwZxmOO++Zh79NydpJ+e516UuLRQUCgUCoVCoVAoFAqFQqFQKBQKhUKhUCgUCoVCoVAoFApFLpS3xnbkHh5uRezhduTuF6efbIs/Bz8UBEf45sfb4wdzcnJCyzd/eXNCD8/OHtD7jHPy6vavIrXiR/vjydOVuX77t5/eU+tytRO8f3r7s9D4Ht2ucpsHl1Tlwd/fGfC0Pv7oAb0vYy4uz24LhwLlfnK8ilzGydt/HKzQLSH3onL7g0C1hWcQnZOVODt78/A+bNgfg9yLf56KE1sGuWfvPxXJH4FfKkTu5wLlHoLcT9+ZwnhiDouUQfErLPdcvNx/PTGfCITJxfx6fS4+umf/Fqo2IfeLynlFvNzPxMotTqhUxCfz9uTeVbYwdsXKNc2k3K1H9/ezyEvvOCEXbzO2KHem1DwlDx+L3IVqc9GbkPvdI5ebg1rzwyAh99GOXZM0Mtef1B6Z3I1T3Cu5k4l5sA9yhwm5X8gvd5LKg8EeyC3uV3T3S+54v+Qm9lTF0l7J/SC/3MTb3z5Ed7xfcocpudLvqlJqR9LLHeyV3GHidag4kn7spoau/HKLeyTXTAf3Tvqxm5Q7KJVkX4iSwR2MSnInczK4eIIuSS43uV8eELVyyx1/SMgdSC83NS/LH91ickslvdxhSu5oJLNcM7OjosGVV27mxV5+uemJalS6k1rueDAZuAMiV+7opt50YZMhsdxxahEalOSWa6ZHLstlaeVm1Jbkjq5Z3Cu5qdd68vcYcsst7pPc7DzF52VZ5c4YuZLKnRlcKeUOB7OCK6PcTGxll5tVezeSWW42uKWSzNHNqr1LBlc6udlpKh1c2eQm3+khuFLLzU5TqXlKLrlm+jcT7guuTHKx2vkDVy6542xop9XKI9eczuRptdLINYeLM1kiuVMb5WJpJK3crFgc6cE9YuWQO57aSrF/75NQrjlO/XPBnHErhdzxPWIH94d2t+WScwyLUxPynNjutFw8ZmFWyk5Ts9XupFxzInYqjeeFdkflwvx0P/NCu5tyZ2uloZ05Te2k3PsWWT6E5yrdKbnw3y7D5DQrjxer3Rm5cVwH9608+BHcLUhjQPQv+JaZ3OX08mbmELZOg+KM6C6YoRjkt9XFfk0Ilnv89OSXJ++WzuLxcDg7geMJakm+vBYrt0DkPn3xH3PhlwiQ714a4rfYDwu0kt+5X07rqPTdf5+LTWb25WsvPvvDIr5aji8fwK//e35eufi8L05suXBKv1rv7MW9vOJczyHZ5PkDuH5eucB8LU4t4dmrZb4DbyH01i8uKssDHd4eiZV78+zVMf+2O8wkRPiO7gtJ5pg2/3p1fharFus9+lPMy5cv6UeWb8kPhn5M+Obbb1bge/LDOLoRrVZHHvIWgFLFdMVUOdOB4GoIsU9dsF5yTdQAkE2LjuvCccAqIhSBoQesgjWweQWqswZxBT9liLvjRm6dFFGDnfr169eNyPYQftZC1Wo6VmsbNYzR85waNdw2OGyXlrUmgtLwGlARsR5t1KIVNb0HjiDAZbVmXCEHHC7vEbGSnZIekGvrmkC1N+SKqNfyMd3ArfotbOJ79X3i0uvU0Wq4NepwvHaXlFWbV5CWXdKy3SKOqg0tW06fOEjLoEq79lwom17TpxfBVOui0xlRbCAI7FB3Q1yGtq2Dw3bBEQbE4dq4RQAVgR7SkrQMSVc30zV045bEQVoGtCU+Jz7ADQN6dXHp3KfBrU/yq4ZY8nV0nnAd4qgaHZLQxNR5C57hqAllwPLUQVdsLNT5IJly+KwLEpnOkMrIj+UabT586SDEpYOaYIRMTBWxgd3QY7npFkbcgjl8xAZuj3fhj6xHJ0pB6VyGVEb1Ca7ODORCGfBalzlCFGSb2szBm+q8L2+hM8NGYdpRZ3cg5BupIZVR1Ezgu6FDSqfttanDqSOocfQAanpeBxyRx2pcOIXTgKaO47KmV/wkoQuOJjsJw7GRsHS2QK3u16oTfDwSSVmLELhpWlNLj6hRw5MrdRiNuEkH+uAx2aUGzmuoQbwG+eCwUeJiteoVRFdAOt+wRAp8J0EHtRwHe3zX9anh6LZPyyZqQEs880CTCEETP4io4dMaYtQRNPWDgJ3Fa9MakjTJy/kuESsinftcrp0lIL6AGmSNwT9uvJS4rA3tFtC2IXTSoa3N24ZxWz1xOli7JrgsvJt+62WpjILEKsSm5x6q1lJbID5P4ymVzbF8fp6sOjhdM51s3ontrGo1tiAlcZjcDaczW4MQue1qGiMM2MgLbGrgtZYMW7IKwSpM1pYeG8haj41OjY9oDSYDo96H3mRBrhKX4daNavZiARIxO3v8KviNgNLucKuDAvyBD/ArAzmk7w4dvMOPoroW4A+yHFlBBGuLBZ4osGzqwUbIDfxaUMd/XAu/HZBLuF7UaPfaPUy7gwtihUhAOms8uG4bcFEHDBsxT4DwnQGRBi88+KbZiw42Im400oatxZ7Qgvefdt3yyHzld/tWBPvlK03DUxrePtv8uW8wneNU9joslfU4gbnhksWkS/7UOha2unA0gdukJlHh931uOhpfkDyNbSssj6ZJ1OhbsF1x+30PUk3fWDqj+JH65Ha7eMWEIVht4QfQ6rZa1ZYW1lrEalVrdt8gxoQu1KRczNGt9p3Y9DyDWobrOU2ymPm6xpagwCKLFvbWLQ1DRG8qneNURnSPg68ZoOYVJbJ6YHSsBnNdNZHHzWXQOtxqIg3O1qxbPVhnG1aHXtJpWyFc+6qvcTaTznEqQz57fXJBC2AW/py4qMmPFjHpqMVngxNOTkXPrtGjNJtI53JSafaCi+nP/iutFc6WxtqAXPpmACFdBXc2+rpyN5DON+sFwdPnsHZ4c0/n8pr3g+bJ9daWm3c6T00PD2SeWn39bM45nW/WvJu5uZxHNueazuum8vxc1nW0vtw803ndVF6Qy7mEN790XjeVRUQ3v3ReX60Q8krnJfeBWyefdEa//W5HyEPv4anx8W5wmYPaQrlw/tFO8FMu/2PPcuHU2LaSZTj4LQ+1VO+5cfDYqb28yW9j1T963OhoE++8e0P58FGz7cejUCgUCoVCoVAoFAqFQqFQKBQKhUKhUCgUCoVCoVDIzv8Bw5NvR+KBroQAAAAASUVORK5CYII=;clipPath=inset(18.4% 14.29% 16.51% 12.61%);" vertex="1" parent="1">
          <mxGeometry x="121" y="503.86" width="96" height="76.14" as="geometry" />
        </mxCell>
        <mxCell id="B5A1lsXzcerOkvqFmVJx-46" value="" style="shape=image;verticalLabelPosition=bottom;labelBackgroundColor=none;verticalAlign=top;aspect=fixed;imageAspect=0;image=data:image/jpeg,/9j/4AAQSkZJRgABAQAAAQABAAD/2wCEAAkGBxMSEhUSExMWFhUVFRUYGBcVFRUVGhcaFxgWFhgVFRoYHSgiGBolHRUYITEhJSorLi4uFx83ODMsNygtLisBCgoKDg0OGxAQGy4lICUtLS8uLS0tLS0tLS0tLS0tLS0tLS0tLS0tLS0tLS0tLS0tLS0tLS0tLS0tLS0tLS0tLf/AABEIAHQBsQMBEQACEQEDEQH/xAAcAAEAAgMBAQEAAAAAAAAAAAAABgcDBAUCAQj/xABEEAACAQICBgcECAQEBgMAAAABAgADEQQhBQYSMUFREyIyYXGBkQdSobEUI0JicsHR8ENTgpIzorLCFiRz0uHxFYOT/8QAGwEBAAIDAQEAAAAAAAAAAAAAAAMFAgQGAQf/xAA1EQACAgECBAMGBQQCAwAAAAAAAQIDEQQxBRIhQRNRYSIycYGRoRRCscHRBiPh8DNSFUNi/9oADAMBAAIRAxEAPwC8YAgCAIAgCAIAgCAIAgCAIAgCAIAgCAIAgCAIAgCAIAgCAIAgCAIAgCAIAgCAIAgCAIAgCAIAgCAIAgCAIAgCAIAgCAIAgCAIAgCAIAgCAIAgCAIAgCAIAgCAIAgCAIAgCAIAgCAIAgCAIAgCAIAgCAIAgCAIAgCAIAgCAIAgCAIAgCAIAgCAIAgCAIAgCAYMVjKdIXqOqDmzBfnMowlJ4ismMpxjuzlvrZhB/Fvv7KO27M5hZOtHd/1IHrKV3MlDWbCObCsoP3rp/qAmMtLbHq4nsdVVLaR1UcEXBBB4jOQNNE6aZ6g9EAQBAEAQDUx2kadEddgO7eT5SSuqU/dRDbfCv3mcLEa3LuRPNj+Qm3HQv8zNCfFI/lRrf8WVPdT0b9ZJ+Bj5kX/k5eRsYfW8fbTzU/kf1mEtC/yslhxSP5kd3A6SpVuw1zyOR9Jp2VTh7yN+q+Fnus3JGTCAIAgCAIBGtNa7YXDkrtGo4+zTsbHkW3D1vIp3RiWOm4VqL1lLC82RfFe0yqT9XQRR99mb5WkL1L7Itof0/HHtzfyRgp+0rE3zpUSO4OPjtGY/iZeRI+AU46Sf2Oxo72l0mNq9Jqf3kPSDzFgfS8kjqF3Ro3cCsj1rkn9iZaP0hSrpt0nV15qd3cRvB7jJ4yUuqKa2mdUuWawzamRGIAgCAIBq4/SFOgu3VdUXmTv7gN5PcJjKSisskrqnZLlgssiGkfaNTGVGkz/ec7A8hYn1tNaWqitkW1XBbJdZvH3ORU9omJO6nRA/C5+O1I/xcvI21wWnvJ/Yy4f2jVx26NNh90snz2p6tW+6MZ8Er/LJ/MkOite8NVIV70WPv5r/AHDd52k0NRCXoV9/Cr6+q9pen8EoVgQCDcHMEcZsFY1g9QBAEAQD5eAczSOnqNHIttN7qZnzO4SWFM57Glfr6aejfXyRwq+uL/YpKPxEn5Wk60q7srJ8al+SP1MA1ur+7T9G/wC6ePToiXGLvJG1htcv5lLzRvyP6yKVWDYr4z/3j9Dv6O0xRrdhs/dOTeh3+UhfQtKNXVd7rN+DZEAQBAEAQDy7WgbEL01rW7k08LbMsoqnMM4APR0+AJG4ned3OWVOjSXNb9PTzZW3atvpX9SK4iorh3uahuQTUJLFagBUm/2kYWyyzHCWMYtNR2Xp5r+UV05ppvf4+v8AB6OMHSXv1SGY5G+3UohGHhtCPCfJ6/tnJg7lzen+DxTxdlBIDNtp1bZWpU9infnmx/t74dby8PCx+r6mCuWF065N3R+Keg5WjUKlLBt5pnZBNWo43EX6otYnLzhshGxZmt/r6I2a7XB4g9vp6k21f1iWvZHHR1dkMUJ3gi+0ndbgcx8ZV6jTOrquq8y20+qVvR9Gd4GaxtCAIBz9PaSGHotVPDJRzY5D9fKQ6i3w63In09LusUERjH68oKCGmb1GUbRI7BGRy4m+fhNzh9a1EFORo8UlPSzdaXXt8CFVNKPVfeWJPO5lxKymmHNJpJHOeHddPkim5M29koBtsLncoz9eU09HxSGsscaYvlX5uxnq+G2aOCldJcz7Lqe+nEsuU0PEWDXrYkTJRInZlmfR+l2pG9jUpjMgdpB76MN1uW6ampp5o5g8P7P4lvotRyvE1lfdE4w+sBUJUYiph2A+sUdZL7mcDeuYBsMvWc7K/q+mGt15f4OprqUo9HnOz8yR0KyuodSCrAEEbiDuMljJSWURyi4vDMkyPBAMdaqqKWYgKoJJOQAGZJhvB7GLk8LcqfW7XR8STSokpQ3cmqd7cl+768ppW3OXRbHW8P4TGlKdvWX2X+SJCa5dm5o7RGIxJIw9Fqlsi2Sov4mawv3DOZxrlLY0tVr6dP0k+vkZtIahaUVSxpqw92lUUn0Nr+V5J4EkVn/lqrHjmaIhVpMrFWBVlNiGBBB5EHMGRtYNpSyspm5ojS+IwtQVKFRkYeYYe6ynIj95T2MnF5RHbVG2PLPqi89SNcKekKZuAldAOkp3/wA6c1Pw3HgTu12KZzer0kqJej2ZJ5IaggCAcLWrWRMGnvVWvsJ/ubkvz+UVtqgvU3dHopamXkluyp9JaQqYhzUquWb4AclHAStnNzeWdXTp66Y8sEaswJhAEAQDv6r60VMIwU3eiTmnu99Pke7cfjNim9w6PYrdbw+F65o9Jefn8S2sJiVqotRCGVhcEcRLFNNZRys4ShJxlujNPTEQD4TaDxvBDdPaxFyadE2TcWG9vw8h85YUaZL2pnP67iLk+SrbzI5abeCmPkxweHyYNHh8kE10PUZaUrrWTRbTyiW6A0+SRTrHuV/yb9ZFC7rhl7otfzYhZ8n/ACSeTlwIAgCAfGMAhGummSW+jKQAbdISxQNexFDbtZSRmb2ytzlloqUl4r+X847lfrLW/wC2vn/BEMVV3oQ6spUC/VLKOyKgH2l4MN4lrXDaXRp/70+PkVVksdNmjCzFmLHMkkk5bzvOUkworCNScsvLParMHIibPWxPOY8yYq+I6NGubKbXA3m24evDw5TR1Wurpwt5dkX3CuDajWe17tfeT9DY0aXO1UJKuCG2y1lRvedjcsR7o33Pgcq4yUF4m77enkl+5jqbKnY40e7HZ+fq/wBkWbq5pb6RSDHJhkwsRZrA3APAggjxlXqKfCnjt2LPT3eLDPfudiQE4gEL9qIZqFFFIF61z4BGztxzI9Zo66yMYLJbcIX91v0IJQoKm4efEylds33L6cIy6tZOjhmmtZKWMZNeVcU8pHOxDs9RyM7EjeNwy4/vOdnwbX6XT6WMJPD7+pw3HeDa2/UuyEeaL29DEa2ZHEbxOhp1Fd0eat5Ryuo0V+nly2xwzG7yUjhBrqY6eJamwdGKspuCOH6jukc4qSwzfplKD5luWLoWvTqUBVpqFD320HZDbnAHAE59978TOK4pCdF/On6P1R2ehnG2pNf6zsarL0Smje6hmKX4KTfZ8r28AJr6LWJ6h0+ayv3JtVHK5zvy5NI+GAVt7TtPEsMIhyFmq24neqeAyJ8RNTUWflR0vBNEsePJfD+SATVOkO9qdq+cZW2WuKSWaoR37kB4E2PkDJaq+dlbxPXfhqvZ957fyXLhMMlNFpooVVFgqiwAm+lg4qUpSfNJ5ZmnpiQ/2ganpjaRqU1AxKDqtu6QD+G/O/A8D3XkVtakvU3tFq3TLEvdf+5KN2O4g8iLEdxHAzROmxk29EaQqYaslekbOhuOTDijdxGUyjLleSO2mNsHCR+itD6RTE0aden2aihhzHNT3g3B8JYReVk5K2t1zcH2N2emBq6Sxq0KT1X7KKSe/kB3k5ec8exhZZGuLlLZFJ6S0g+IqtWc9Zju90cFHcBKq1tybZ2ug8LwIur3WjWkZuGzo/R9Wu2xSQueNtw72JyHnM4wlLZEN19dK5pvBJKGoNci7VKankNpvyE2FpJd2VkuNVJ9ItnmtqJXXPbRvwhvlNe6qytZUcr0MocYql2waf8Awu/8xfQyueuit0bH4+PkfRqpUP8AEX0M8/Hw8h+Pj5Ev1Hw9TD7VF3DIx2lAv1W4jPgd/iO+b+g4hGc/DwU/EnG3FkVh9yYS6KgQCM64aT2V6FTYsLueS8vP5Dvm5pKuZ8zKfiuq5I+FHd7/AAK7xWnaa5Ldz93d6/peWig2UcaW9zTOsD/y1/uJ/KZeGZ+CvMzUdPj7dMjvU7XwNpg6mYujyZ08PiFqDaQgj5eI4SCSa3IJRcdzJNe19DxGanKm5kyNimJXzZLEmmruO6SnssbsmR7xwP5eU3tPZzx67o6LQ3+JXh7o682DeEAQDV0jiAiFjuUFj4KLmexXM0keSeFkp6pjlbaaox2qxLP0bOGFztbNSm4CuBew2SN2+dFCDWFHt5/s0UU5J5b7mmrk7yTYWF+Q4eE2tjSmzYpmRtkEjZSRTkorLMI1ynJRgstmDFYpUUk5AcfyEodZxR9Y1fU7vg39J7W6z5R/k5+AVqrdM+Si+wv+7xjhekc5eNP5fyTf1RxaNEPwVHT/ALY7LyOrScAjaZgFO0Nmx62W65sN2/PduM6KUW10RwlUkn1fQkOqekAuJChhaspuNp3baXrqzswALEbQylfrKm6svt8uhb6KxKzHmWMpuLynLg+mAVdrnpDpMSwv1afUXy7R9b+k57WWeJa/JdDp+HU+HSn3fU4Qaa2DeZtYdpDNEUkYGXD0Wc1elYuSyhGC7zcjdlmd5lxw3TS1iwltuys4jxNaSCbfXssHMxGJVmLBQgyAUEmwG65ObHmTO10mlhpockTgNdqp6y3xLDUr1zNk1VFI1mxfAzHJnysm2oVSonS0nUgMlKsnHaWoGG0P7QPEGcp/UUl7Ml6pnS8FTUXB/H6k4GIWiFrMbLsFm/pBBt6CcvFOvXU2dmi1lFzjKC8yRgzrl1K48YiqEVnO5QSfAC5hnsYuTSXcoDGYpqtR6rdp2LHzN7eW7ylZJ5eT6HTUqq1BdkYZ4Slx+zzRwo4NGt1qv1hP4uz/AJQJYUxxA4ji17t1MvJdF8iTSUrRAEAoz2kaLFDHVNkWWqBVHcWuHH9ysf6po3RxI6fhtviUJPddCL7MiLAtX2N6QJpVsOT2GDr3B7ggea3/AKptaeWU0c/xerE1NdyxpslQQX2qY4rSpUAe2xZvBLWB82B/pkdj6FRxazEFDzK1vaad0O5cf0rxPDelm/WP8G7ozBtXqpSTe5t4cST4AE+UghDmlg7e+6NVbm+xY2PxtHRtFaVJQXIuAePA1KhG/wDYyAnQ6DQeK8LoluzhNfr5SlzS6t/YiWI1ixTm5rMO5DsD4fnOghoKIrHKU0tTa+5v6J1vrU2AqnpE43ttDvB4+BmvqOGVyTdfR/Ymq1c4v2uqJfiqaVEFanYggG44g8fGcHxjQYTsSw1udDpL84XZ7GlOaLI+o5BBG8G/pM65uE1JdjGUeZYJVTa4B5gGd1CXNFSXcpWsPB9MyPCj9cNMmvXqBT1dsg/etkB4AD1l/paeWCOVvnz2ym/P7HFp0puqBA5mcII5UYczNnA6NqV3FOkhdzwFt3Mk5AZjMyK2cK1mTJqoWWPEFk7TalY+h9aiKxG9UcEkciDa/lc8povV0z6G7Ph93L1X3MmGq7ahrEcwd4IyKnkQQRNG7o8FS4OLwzbpmVlrMkZ0M0JolR2dWa1q4HvBh8L/AJSXStqeCw4dPF2PMmUsjoBAEAj2u9S2Er/9Jh/d1T8DNjSLN0fiRX/8bKyxWIfYIWupS1jT6dqv9oZcvLlLyEY83WLz54wVE8pdH98mhTabDNKSNmiSSABckgADiTuAkcnhZZC456IlekdWDTwwqbX1ii7rfI3+yn3h8c5zXELZ3P2X0XY7X+n406OX9yKy+/kV6u1iatjcKu8ch/3GaOj0rvs5e3c6jjPFIcP0rsXWT934kiFgABkBkBOvrgopRjsj4/ZZO2bsm8tvJ4RjtC1gbixNreJvlaTNJxwzKGU+h2MDXbpqG1UDkVk3VgwzOz1aYGWR3zTsjHklhYWPL9yzpk+eOXl58/2LPwp6o/fGUJemUwCl9N1L1qn/AFHt5MQPlOan1nJ+p2OmjiqPwNRGmDRM0a1XH1OsUAsoOZzJtymxTp4SnGM3v9iDUSddUppZaXRHJxGlXq7O3s9W9tkEXvbfc907TQ6CrSc3h9/M+ca7XWavDmtvIxfSJY5K7lZrVK5zzmDZJGGTWerMHLBPGsuvVSspwGGYgbQobF+4m9v8s+ecd4lJ3Tqitng6bQ04ri/RHjXxz9Fp0Ezeo6Ux6hyfABCZHppwskm/yRf6GxGThNSXdk9oDqr4D5Tpa/cWfI0Je8zm621NnBYgj+S/xBEWe6zY0SzqIJ+aKLvK077J8Y5QMn6B0XTC0aSjcKaD0USzjsj53a82SfqzamRGIAgFXe2GkOlw7cSlQejIR/qM1NTui+4M/ZmvgV7sTXLrBN/ZIxGMqDgaDfB6dvmZPp/eKnjC/tRfr+xbk3DnSrfam/8AzVMcBRB9Xe/yEis3KDiz/upehDTI31RXU2yqmrI7p5JZ7M6QOJdjvWkbebKL+nzmFEMTZ9Eu161eihZHvv8AFGLWusXxdW/2W2R3BQB/5852uggo0RwchqZZtZyZukAnh4WDqJVLYZlO5XYDwIDW9WPrOZ4zWud+qLjh8ny/BmSfMnudOJ4ekl0afqk8J2mgedPD4FPd77PeNcrTdhvCMR5Azcj7yIJ+6z87Up18YpI46TyzMpgxPOIxARS3oOZkc5cqySVVucsItb2TYQDAiuc6lZ3LHuR2RVHIALe3NjOd1k5Ss69jptHXGFfsk0mqbZBdc8IqVgygDpBdgOYy2vMW9J5ObwkznuLVqNqku5wkaak3kq0Z1easjNHY1WQtiFPuhifS3zMl0y9ssOHRbuT8icyxOiEAQDia2YY1MPVQb2pVFHjsnZ+Mloly2RfqR2rmg0VNXq9IF6jVKjr1b1hVdRvv0dJRsb9zekv4ey31wvh+7KieGtsnPRpsGrJE31J0WFX6ZWyUX6MHidxe3HiB5ngJUa/Uf+uPzN/Q6b/2S+Rl07pwE9bh2UB3d5/WadGmla/Q3dRqoUrrv5EXeqCzNYAsbmwtfhnzlxTp4UrEfmUOq1Vupadj22XkfOkmwkavKeqRueyWAzIF9w3k23DvmUui3wSwj12ydvQih61BVuFDF7dJTqAbILfZUMpuRkec0dQ+Wube+2zX+Cx00cziltv5ln4YWUeEoi7MsApzXDC9FiaicLgjv2gCT63lFfXyWtHWaCzxKEzjUakhlE3WZqICi0wk2+pi+pq4nQ9JztAlCd+za3od3lLTTcZvpjytc3xKHVcBoulzR9l+h9FDB0R9YNs8SxJ+AsBMLOI6/US9h4+AjwTSUwzJfNs4WmqmHLA4ctskHaUhrKeGyWzzz57p0PD56p1tanfs/M5vW06eFmaHlGtojC9NiKNLft1EB/De7f5QZnrNQtPTK19kYUV88lHzLk0NSWlR6IdmmwVb/cuAfjPmGt1Mrptpe91Z1KqUFGK7IzBumr0qY4m57l3t8BJeGaWUrMebWfkZTxXVKb+ROhO6RRGjp3DGrhq1Mb3pOo8Spt8Z5NZi0TaefJbGXk0fn1Xlad9kFoGS/dWMWK2EoVOdJL+IFmHqDLGDzFHBaqvw7pR8mzqTMgEAQCqvaxXDYmnTH2KVz4u270Ues1NQ/aOh4NDFcpebIRsTXLknnskwv11apwWmq+btf/ZNjTrq2UnGZ+zGJaE2ygK19q2HtVo1ODIy+am/+4yOxFFxePtRkQWRFQSDUbSAo4tdo2WoDTJ5E2Kn+4Aecyh0kWnDdY6n4Uvdf6nZ150WyVenA6lS20fdYC2fIEAed50/C9QnDwnujb1lTUuZbMi8tTSPSKSQACSTYAZkk8AOM8lJRWWEsvCLL0JgvouFCt2zdm/E3DyFh5GcXxnWrErPkjoNDQ1iJrzgC/EAk+CS1NR90Tt9LDkpjH0KWx5m2ZKqXBHMEes2E8PJHJZWD87VqRRmQ70YqfFSQflOvhLmin5nHzjyyaPgMyMDnaTqXYLyHxM1bnmWDe00Uo5LY9jOl1bDvhSevSYuo5o5uSPBr3/EJTa6tqXN5lzorMx5fIsWaJulb6yYt6mIfbUrs9VVPBQTY+e/zmlbY+bqcxrpync+ZYOVea7sNMz4am9RgiKWY8B+8h3zCMXJ4RJCuU3iKyWDq9on6OmebtYsRu7lHcJZU1eGvU6PR6VUQ67vc60mNwQBAMGMp7SnmMx5QCoNO4I0KlSjtlKb3qIdoU0CE3bbCjbrMCdkJnYWPhd0WKyKljLXR/7sviVlsOWTXY09EaKWrXKkutGkAarOAjW5AfZLEGwubC5vlJrr3XXnu9sENdKnPHZbnT09rTtkJRACKLLbcoGQ2RxPf6TUo0Lb57foT36vC5ayPdLc3JuTxloopLCKmSbeWexUjBjynrbmSQUTdwaC/aZKivbMmmD9zpP4b5N2svC2cVkumya/3rjuieuGPRkx1MwRqM1c3O31VLBQ2wDdmYr2iTltcdkSp11mEql8X5Fpoq97H8ieyuN8QCA+0/RZITEqN3UfwJuh9SR5iV+tr2mi64Rek3U+/VFah7GafLlF+blKteQSiGjV0jhKjZ0XtzVt3iDwM2dNbUulsfmaWqjqN6ZL4MjGMWopPSXuOYIHiL750el/D8ua8HK62eqlLluz+x8w2HeoQEUm5t3eZ3CTW6mutZkzVq0llkkoxJrqdoM0KrV6hBKghLXyv2j48PAnnOV4xxJamtVQ2e5e6ThsqZc0t+xIqmkMrD93zMo46fLLZVd2ZvZzjWxGNqOv+FTpsNrgxJAy7rg+hnR6HSqlrO+OvoVuutjKnC2z0+W5aMtCmEAoXXfRJwmLqJayOTUp8tliTYeBuPISvshyyOy4dqfGoT7rozg7cjN7JZ/sj06Cr4NzmCXp94PbUd4PW/qPKbenn05TnOM6fElcu/RlkzZKIQDFisQtNGdzZVBJJ4AZmeN46mUYuTUVuyjdNY04ivUrEdtrgcgMlHoBK6cuaWTstNSqalA0tiYkxcGoOiTh8Ku0LPVPSNzFwAoPkB5kzfpjyxOT4jf4tzxsuhJJKaJHNfNEnEYVtkXemekUcTYEMB4qT52mMllGlr6PFpeN11KeEgOYEAnWruuaFOhxeYts9IRtBhyqDffvz7+cmhY0XOl4jHl5Lvr/ACdQ6v4Ct16dQAH+XVUj0N7SyhxO6KxnJueDp59Yv7j6To7AXYMrVAMrHpangLZL45CQX62y33n08jzn09HfL+rMmHxz11FV12A2apv2V4bXNjvPkOE4vimq8azlWyL7QQl4fiSWG+3kjLKw3zPgqG24HDefATb0NDuuUe27Ib7OSDZJRO0Kg+wCm/aTog0MWagHUr9cctrc49bN/VOh4bdz1cvdfoc5xKnkt5lsyKAyxK85uN7Z8BNOxYmb9H/GZ9FaSq4aqtei2y6HLkRxVhxU7iJHZCM48siaE3B8yLx1S13w+NULtCnXtnSY7zzpk9seGfMCUt2mnW/TzLarURs+JIsTg6dQWdFb8QBmq4p7ks64T95ZNE6u4X+Svq3yvMPAr8iD8FR/1RtLTo4dCbJSQZseqgHex/WSRgl0iiaMIVr2UkbKOCAQQQRcEZgg7iJ6SHqAIAgCARzWnQQrJcHZZTtI4FzTfgfA8f8A1JqLnVLPZ7kdtamis8bRZf8Al6xNIIS7gG4ZVA267O3+NUdiAoG61iBLiEov+5Hr5fxjskV0k17MuhzcThSBUcr0YDqoQksbuC4W/NVAvfmOc2YTy1FdfUglDdnjoH2tm2ext2uOzsdJf+3OZc6xnsYOtjZOyHPZLFb94Ckj0YT3mWcdzDk7nQXAEGohte4VHvZSxBdFPIVEzBPEDvkbu2a+a+32JFVujt6F0c2KNwX6GwVnOTVVytRYWs7KRbpBwHO1tO+9Ur/67Ly9V/Bs1Uux+n6lnaOwYpqAABkBYbgBuAlM228stEsLCNueHogGHF4ZaiNTcXVgQRzBnkoqSwzKE3CSlHdFI62aAqYOrstcobmm/BhyP3hxEq7KnW8djrNHq46iGe/dHFpVpE4m4bVPESJwPDYXEzDla2MXFPcz08QOMjlGTPOXGxkraSysJhGjrlnir6nrR+Bq4puipqXJ7R3KoOV2PAfsTapolKXskWouqqhmwtfVjQKYOiKa5sbF2ta55AcFG4CXdVfIvXzOX1F7ulnGF2R2JIa4gEb141ZGOobIsKyXakx58Ub7rfAgHhI7K+dG5otW9PZns9yiMTRem7U6ilXQ2ZWyIPI/vOaDTXRnWQtjOPNF9D7hMW9J1qU2KuhBVhwInqbTyhZGNkXGWzLh1X9o1CuoXEfVVQM8iUbvU8PA7uc24Xp+90Ob1HC7IPNfVfckGI1pwiC5roe5Dtn0WZu2C7mtDQ6iTwoMgOtetL4v6tAUog3se05G4tbcO79jVtt5uiL7Q8OVHtT6y/QjOxIS0JVqRqya7itUH1KG4B/iMOA5qDv9Oc2Ka89WU/Etcq4+HB+0/sWkJuHNH2AfIBVWverBw7mvSH1Lm5A/hseH4Sd3LdykU490c9r9G65c8dn9iIyMrBAPhUQDqataL6etmOpTszcjyXzPwBmlr9T4NXTdlvwnRfiLVleyurLDnLHc4PSqSbDMmZRi5vljuG0llkg0bg+jXPtHf+k67QaNaeHX3nuVV9viS9Dcm+QCAcnWbQiYyg1JsjvRvdYbj4cD3EybT3umfMvma+ooV0HF/Io7SWAqUKjUqq7LqcxwPJlPEHnOnqtjbHmicxbVKuXLI5ePp5Bhw3+Exuj+Ym08/wArNS8hNnB8M8Z6jt6P1xx9AWp4mpYcHtUHgNsGw8Jry01Ut0TRvsjszeq+0fSRFunA7xSp3/0yP8HUuxn+Kt8zPqvojFaYrg4irVfD02vUZmNufR0xuDHiQMh5XwunCmOIrqZ1RnbLMti9KNIKoVQAqgAAZAAZADulUWZ7gCAIAgAiAcbTOr9LELssgYbwDkQeaMM1MkrtnW8xZhOEZrDIVpPU2su10dQNcVbCsCCGrAB321HXawtmJvw10X76xtt6djVnpX+VnOraExO2W+jZnpRdalM2VqHQ01uSMhvky1FTjjm/3OSJ0zTzj/cHrB6vYrq2pU0Aai3XdSLpTNOpcJe4e9zPJ6qnrlt7/r0+h7HTz8jvaI1IyXpmNWyquzbYpkLfZDDfUtewvw4TWs1zf/GsfqTQ0qXvdSbYPBLTAsBkLCwsAOQHATRbb6s2ksbGzPD0QBAEA1NJ6OpYimaVVA6HgeHeCMwe8TyUVJYZnXbKuSlB4ZVusfs5r0iXwx6ZPdyFRfyfyse6ac9O17pf6bi0JdLej8+xC6quhKujKw3h1KkeIO6azg0WsbIyWYtMCv3zHlMj3SqFjZQWPJQWPoI8P0PHOK3Z3dE6nY/EkWToKZ3vVUqbdynM+nmJs16fO6KvVa+MHiMvp1++xburuhKeDoLRp3Ns2Zs2djvZv04ACbkIKCwihvvldPnkdSZkIgCAIBHNbdT6GPW7dSqBZaqjMdzD7a9x8iJHOtTNvS6yyh9NvIqDT+pONwhJakaiD+JRBcW5so6y+Yt3zVlVKJfUa+m3vh+TI2KljvzHqJGbifdG9R0w677MO/f6zwzU2dLRuKrYg7NHDPVP3LsB4m1l8yJ6ot7GFmphWszaRYerWotQkVMZsqN4oodo/wD2Pu8l9ZsV0d5FPq+Ltrlp+v8ABYFOmFAVQAALAAWAHITaKNtt5Z7g8EAQDxVphgVYAgixBzBB3giDxpNYZX+sXs+Ny+EItv6Jju/Ax+R9ZHKHkU2p4X15qvoQbG4KrROzVpsh+8pHodx8pG00VM6pw6TWDAovkMycgBxJ3ATxvCyzCMXJpLdli6D0cMPSCfaPWc82O/yG7ynJ6u932trbsfQeH6RaalR79/idnD4F33Cw5nITOjh91z6LC82bFl8IHawWAWnnvbn+nKdJpNBXp1nd+ZX23ys+BtzeIRAEAQDj6xauUcYmzVFmHZdcmXw5juOUno1E6XmJr6jTQuWJfUqzTuo+Kw5JCdNT96mCTb7ybx5XHfLynX1WLD6P1KK7QW1PK6r0IZiMGVJt5qciPWSyr7x2PIXdp9GazZb8vGRkyw9jJg8LUrNsUkeo3JFLn4CYSnGO7JIxb2RYGq/ssq1CKmMPRJv6JSC7dzMMkHhc+E0btal0gbdekb6zLbwGCp0Ka0qSBEUWCqLAf+e+Vrk5PLLCMVFYRsTw9EAQBAEAQBABEAxmgvuj0EA+rSUblA8hAPcAQBAEAQBAEAQDHUoq3aUHxAPzjB6m1saaaDwwfpBh6QfPrCmoOe+5AzmPKt8GfjWY5eZ4+JupTA3ADwFpkYNtnqDw+wBAEAQBAEA+QDTxmiaFX/FoUqn46aN8xPHFPczjZOPutmrR1XwSG64PDg8xRp/pPFCK7GctRdLo5P6nUp0wosoAHICw+EyIW29z3AEAQBAEAQBAPFSmGFmAI5EXHxg8aT3NIaDwwYOMPSDA3BFNAQed7TGUIyWGiNUVqXMorJtph1G5QPACYRorj7sUidzk92ZZKYiAIAgCAIAgCAauK0dRq/4lKm/40VvmJlGco7PBhKqEveSZprqzgwb/AEWh/wDkn6SR6i17yf1I1pqltFHRoYdUFkVVHJQAPhIm29yZJLYyzw9EAQBAEAQBAEAQBAEAQBAEAQBAEAQBAEAQBAEAQBAEAQBAEAQBAEAQBAEAQBAEAQBAEAQBAEAQBAEAQBAEAQBAEAQBAEAQBAEAQBAEAQBAEAQBAEAQBAEAQBAEAQBAEAQBAEAQBAEAwDF0+t116va6wyy2s/I3gH1cVTIuHW2ee0OBIPxB9DAPhxdOxbbWwvc7Q4XB/wBJ9DAPZrKPtD1HG9vkfSAOmW21cEDiM/lAMK6RpHc6m4uLG9xa915i3KAeRpSjl9Ypve1je9uXPPLxy3wD7/8AJUshti5uR32F7jnlygGzTcMAQbggEEcQdxEA9QBAEAQBAEAQBAEAQBAEAQBAEAQBAEAQBAEAQBAEAQBAEAQBAEAQBAEAQBAEAQBAEAQBAEAQBAEAQDmHQWHtbo8r37T8gOe7IZbsoB9OhKBJJp3J2rksx7W1fefvt6wD6dCUDvT3vtv9sWbjxGR8ByEAPoeiw2ShIyy234Cw+1yA9BygGZdH0wrKFsGvexYHrAA2YG63CjcRugGNtFUjwbPlUqA9kpvDe6xHdeAfW0TRN70xnfnfNBTJvffsi14B5OiKO0G2TcbViHcW2lCnZs2Q2QBYbrZQDdo0wqhVFgoAA5AZAQD3AEAQBAEAQBAEAQBAEAQBAEAQBAEAQBAEAQBAEA//2Q==;" vertex="1" parent="1">
          <mxGeometry x="137.5" y="522.6800000000001" width="63" height="16.88" as="geometry" />
        </mxCell>
        <mxCell id="B5A1lsXzcerOkvqFmVJx-47" value="" style="rounded=0;whiteSpace=wrap;html=1;labelBackgroundColor=none;" vertex="1" parent="1">
          <mxGeometry x="428" y="530" width="136" height="120" as="geometry" />
        </mxCell>
        <mxCell id="B5A1lsXzcerOkvqFmVJx-48" value="" style="shape=image;verticalLabelPosition=bottom;labelBackgroundColor=none;verticalAlign=top;aspect=fixed;imageAspect=0;image=data:image/jpeg,/9j/4AAQSkZJRgABAQAAAQABAAD/2wCEAAkGBw8NDw8NDQ8PDQ0NDw8PDQ8NDw8PDw0PFRUWFhUVFRUYHSggGBolHRUVITEhJSkrLi4uFx8/ODMuNyguLisBCgoKDg0OFQ8PFS0dFR4tLSsrMCstNy0tNzctLS0rKys3MTcrLSsuKzc3LSs3MCs3Kzc3Ny0rNy0tNy0wKysxLf/AABEIAQMAwgMBIgACEQEDEQH/xAAbAAEAAgMBAQAAAAAAAAAAAAAAAQYCBAUHA//EAEUQAAEDAgIHBAYFCgUFAAAAAAEAAgMEEQUSBhMhMUFRYRQycZEHIkJSgaEWc7HC0hUjQ1NicoKTo8EzNVSSskSz0fDx/8QAGgEBAQEBAQEBAAAAAAAAAAAAAAECBQYEA//EAC8RAQABAwEGAgkFAAAAAAAAAAABAgMRBAUSITFBUWGhExQiI2KRsdHhFSRCccH/2gAMAwEAAhEDEQA/APX0RFhUooUoCIiAiIgIiICIiAiKUBERAREQEREEoiIChSoQLoiIMVKhEEoiICIiAiIgIpRBCIiCUREBERAUqEQERERKKEQEREUREQYoiIClQpQEREBERBKKFKCFKhSgIiICIiAiIiClQpQEREVCIiIIiIMUREUUqEREoiIoiIgIiIJREQEREBERARERBERAUqEQEREUREQQ1pO4E+AU6t3unyK+1Cdj+j/7BbSsQjn6t3I+RTVu90+RXQRXA0NW73T5FNW73T5Fb6JgaGrd7p8imrd7p8it9EwNDVu90+RTVu5HyK31rYjXxUsbppnBkbN5O8ngAOJPJSYiFiJqmIiMy+WR3I+RWvU1UUP+NJHF9Y9rPtXn+PaaVNUS2EupoOAYbSuH7Txu8B81WTtJJ2k7STvJ6r469VETimMu7Y2HXVGbtW74RxexQYlTyG0dRBIeTJY3HyBW5kdyPkV4gQurg+kNVREaqQmMb4pCXxkcgPZ+FlKdXH8obu7CmIzbrzPafu9ayO5HyKZHcj5FaujmkMWIMu383K0fnInG5b1B9pvX7F2F9268/VExMxPOODRyHkfIpkPI+RW8iYRo5DyPkUyO5HyK3kTA0cjvdPkUyO5HyK3kTA0ch5HyKZDyPkVvLGTunwKmBooiKK+uH7n/AL/3WrbWnhp2SfWfdatxbhBERAREQEREBeS6bY06sqTEwkwU7iyNo9t42OfbjxA6DqV6NjWJCFpjbtkeDb9gHj4qoU1MyEZY2ho6bz4neVwdqbVt2Z9FT7VXV2Nl0xbmb1VOZ6f7KmRUcr3NYyKRz3kNaA0+sT4q74X6PAWh1XM4OP6ODL6vQvcDf4BZLfoMWkhIBJkj4tcbkDoeC5+k2xZ3sX6MR3znydDV6rUV0+5nd+r41fo7pyDqZpo38NZkkb8QAD81S8WwOeikyVDRY31b2m7JAOIP9jtXssMoe1r27nAEXFthXO0kw0VdNLERd4aXxH3ZGi4893gSvXaW3Yi7RXVTmny/twr20dXNmu3FzjPz+bynD62SmlZPEbPYb9HDi09CvYcOrG1EUc8fdlaHDmOYPUG4+C8VBVu0L0lFPaknsIXOOrk/VOdwd+yTx4X5bvRbS0s3KIroj2o+jz2jvblW7VPCXoqIi866wiIgIiICxl7p8CsljL3T4FBoooRZV9cN3SfWfdatxaeG7pPrPutW4rCCIioIiICxe4NBJ3AEnwCyXxrGkxSAbyx4HjYrNczFMzHNY4yplRMZHukdveb+HILYwzD3VDiAcrG2zOtf4Ac1pKx6MStyPZ7QfmtzaQB/ZeB2bZo1Wqim9PCczPj1dzUVzbtTNDCfR0Zfzb3ZuT7WPluXywjBy46ydtmg+qw73EcT0+37bGi9X+jaX0tNyKcY6dHL9bu7s055iIi6r5nmukOhzqSMzQSGaJltY14AkYPeuNhHPYLKrL2HSKpZFSVDpLZTE9gB9pzgWhvxJXjy9Ls2/cu253+OJ5uPq7VNuqN3q9V0KxA1FGzObvhJhcTvOWxaf9pau8qh6NWEU0zuDpzb4MbdW9cLV0xTfriOWXSsTM26ZkREXzv2EREBYy90+BWSxk7p8Cg0EUosq+mG7pPrPutW4tPDf0n1n3WrcVhBERUEREBERBTsWozBIRb1HXLDwty+CruJ4y6I5KdxbIO9I09zoOq9MraRk7HRyA5XA7QbOaebTwKoOI6AzsJNNIyZnASHJIP7Hx2Lz0bEpt6ibscaecR2/HZrW62/NiLdqOM856uWNLsQH/Un+VB+BPpdiH+pP8qD8Cz+huIfqR/Ni/8AKfQ7EP1A/mxfiXT954vP41PxeaBpfiH+o/pQfhU/S/EP9R/Sg/Cn0PxD9R/Vh/En0PxD9R/Vh/EvZWvU9ynO5nEdn6fuPi83OxHFaiqINRK6TL3QbNa3waABfqteCF0r2xxtL3vIaxo3klWGl0IrXn1xHCOJe8ONugbe/wAlc9H9GoaH1m3lnIs6VwsQOTR7I+fVLuvsWaMW8TPSI5NW9NcuVZq4R4tvAsOFJTxwAglgu8j2nna4+Fz5WXQRF52qqapmqecuvEREREchERZUREQFjL3T4FZLGTunwKDRREWFfTDf0n1n3WrcWnhu6T6z7rVuLUIIiKgiIgIiICIiAiIgIiICIiAiIgIiICIiAsZO6fArJYyd0+BQaKIiyr6Ybuk+s+61bi59LOyJk0kjgyNjy57nGzWtDW7SVUqr0gSTSGPDaOSpy+25shuOeRouB1JHgtQi+oqDD6QJoHtZiVDJTtd7bWvaR1DHj1h4H4K+RSB7Wub3XAOFwQbEXGw7QgyREQEREBERARV/S3SYYY2JxhM2uc8WD8mXKAeRvvVgQEREBF8K2sip2GWeRkUbd7nuDR4ePRV0+kHDM2XXPt72plt9l/kgtKLWpK+GePXQyNlisTnYcw2bx0PRYYVikFZGJ6Z+siJLQ7K9m0b9jgCg3EREBERAWMvdPgVktDE8Wgp3RQzPySVRLIG5Huzu9UWuAQNrm77b0EIiLKqJp5UySyU+GxnL2idrn8nFxbHHfmAcxt0HJX7CMMho4WwQNDWNG0+093FzjxJVA08gfDNS4kxuYQTMa/kHMc2RgPQ+sL+HNehYbiEVVEyeBwfHILgjeDxBHAjiFrojTqMXw6QZZamieGua4NfNA4B7TcGxO8ELbpsTp5g8xVEMojGaQxyseIxt2usdg2HfyKq2IaD4XAySeYysjYC97jL9mzaeQVMw2KRmGYlURhzIp5aaFu3bkDyXC/Eeu1t+pVFzrfSRSMeWRRTVDW96Rga1hHMXNyOpAXe0f0hpsRYX07jmZbWRvGWSO+643EdQSFraDUsMeH0xhDfzsbZJXC13ynv3PGxuOllVo4202kOSkADZI366NmxoJhc8iw3DM1jvEoLFpBptS0Mmos+ecbHMhAswncHOJ39BcpgGm1LXSaiz4JzsayYNs88Q1wO/obFcH0UQxydqqZLPq9YA5ztr2tcC4npmdmv+6npYhjj7LUx2ZV6whrm7Hua0ZgeuV2W3LMiLdpDpFT4cwPnJLn31ccYBkktvsCbADmSAq/TekqkcHayGeIhuZgsx+s6DaLHx2bN65skbanSEMqwC2ONmpjf3SRC14FuIzOe7xCsnpBpYpMPndKBeIB8Tja7JMwAAPW9viiqr6RsRZWUlBUxBzWSunLRIAHC1htsSOHNXXSLSWmw1rTOXOe++SKMAvcBvO0gAdSV5vpB/lOE+NT/yW5jdY5mOSudTurZI8jaWDbbNq2uadxuBd7vHbssiLPhOn9LUStgkZLTPkIEZlDcjidwuDsv4W6q3Kg1OjWIYsWPxSSGliaTkhhY10jb7CM2219ntO8FeqeLIxjMzn5GtbmeQXusLXcRxKiqLT035bxGofUEmhw9+qiiuQ2WS5BJtzyknoWjmroMNpwzVCCER2tk1TMluWW1lUdBpRTVmI0Evqymd00V/0jDfd/CWH4nkrwqONh+AU9C2pdTNcztF3ObmJY2zSAGjgNpPx5AAcf0ZytjwvO9wYxkkznucQGtaLEkngFaqh4LZGgguawlwBFwCDa44bj5LyjXPbo60MuGyVmWS3ubXf8mtRFvk9INNdxip6yeGM2fPFCNWOu0i3xsu7RY5T1FO6rhfrImNe59hZ7S0XLS07nW+0cFtYfTRwxRxQACJjGiMN3Ftt/W++/G6odEwQ1+N08AApzSPkLW91suRpsOW18mzp0RV2wTFY66BlTCHiOQuDRIAHeq4tNwCeIK+VPjkUlZLh7Q/XwRiR5IGrLSGHYb3v644c1yvRr/lkH70/wD3XrmUkhGO4m5m1zaK7Rv9YMp7DzQdfFtM6enmNNHHPVzt77KVgfktvB27/C9uNlWsex2Gvq8IfDna6Krc2aKVuSWJxfDYOHwO0ciux6LYWdiMw9aaaaQzvO1xIOwE+Bv/ABHmtTTinjbiWFStAEsk7WyEb3NZJHlJ/wBzh/8AERbERFhojpY54pYpmiSOQkPa7cRZv/t1T5dBKule5+F1pia43LJXPZ5uaCH/ABarnBMGAi283X17UORViUUZmg9dVvacTrjJG03yROfJfwzANYeuUq5/kin7N2IRgUxYY9WL909d977b777V9u1DkU7UORVyKQzRDE6Mujw6va2neScsxLXNv0yOF+otddrRPRNtA59RLIairluHym9mgm5AvtJJ3uO+3Bd3tQ5H5J2ocimRUsU0MnZUPrMKqRSySEmSN9wy5NzYgHYTtykEX+UYXoZPJUMrMVqRVSRkFkbLllwbi5IGwHblAG352/tI5FO0jkUyYVfTHBKermhyVLKXEhsg9b1pA27hcA3FiDZw671XtJsFxFtLJNidcySODLqYoyTrJCQ0ZvVbzPM79ytGlOj0OI5JA50FTELRzMF9l7gOFxcA7RtBBXFbobPO5n5Rr5amGM3EYLyXfxOPq+IF+oTMDGLRiXEcLw5jJGRGJsrzrA45mvcS21um34ru6V6JiueypglNNWRABsgvZ4BuL22gjg4fPZbuxSsY1rGNytYA1rRYBrQLADos+0jkUyKSNEcTq3MGJV4dBG4ODadzsxI3Eeo0A8nG5CvbG5QAL2AAFyXHZzJ2lfLtI5FO0jkUyOPpLoxHXlkzXupquL/CqIu8LbQHAEXHLaCOe+/K/JmPgasV1KWbtYWfnbeGqtf4/FW3tI5FO0jkfkmRxNH9FxR66WSZ9TV1LS2WaQkAjkG3PTabnZw3L54Loo2LD3YdVObK17nkuju21yC0i+4ggH4Lv9pHIp2kcimRUIMCxmmZ2alroHU7fVjfMw66JnIDK4bOp8l2tG9G46GORrnGomqSTUyv3yk32W5bTvJNyV1e0jkU7SORTIptFo1ilA58OH1cHZHuLmioBL4r8hlIJtbjY23Bb+jmiklFWS1b59eJYSx5cCJHyucxz3HgBdpsOAIVj7SORTtI5FMiqSaL1tHNJLhFRFFFO7NJT1AOra7m2zT9g8Svi/Q+qknp62pq2zVEUrZJhlIjEbC1zY4gB+/t2Xvu3k3HtI5FQ+oBBFjtFkyNdEUrI+alYhSoqUREBSiICIiAiIgKVClAREQEREQREQEREUUKVCoKURRBERUfMKVClRRSiIJUKVCCUREBERAUqFKAiIgIiICIiIIiICIoVUREUBERUYqVipWQUoiCVCIgKVCIJRAioKVClAREQEREBEREEREBQpUFFEREQREQYKVClRoRERBSoRBKhEQSEJUIglFCIJRERBERARERRERAUqEVEqERESoREViFKIooiIiCIiCVCIgIiICIiCUREBFCIJREQEREBERUEUIgIiIP/9k=;clipPath=inset(27.99% 0.52% 27.22% 0.52%);" vertex="1" parent="1">
          <mxGeometry x="534" y="629.26" width="54.68" height="33.03" as="geometry" />
        </mxCell>
        <mxCell id="B5A1lsXzcerOkvqFmVJx-49" value="" style="shape=image;verticalLabelPosition=bottom;labelBackgroundColor=none;verticalAlign=top;aspect=fixed;imageAspect=0;image=data:image/png,iVBORw0KGgoAAAANSUhEUgAAAOEAAADhCAMAAAAJbSJIAAABOFBMVEX///9HleRPiOzHZnpKkOdKj+hJkuZMjOp+e9JLjemMeMp+o+9NiutKhez8+PnVk6C6aZH19/2adL1kguHf6fqHec08fuuNeMmStfHm6/qDbMY5iOZlnOmsuOuTdsTs8vxzcM+qotvj2+yvr+O4apTFt97EZ39UeuG3YIsyjeKNccPCZ4PDV25xf9qdc7m9aIyUarnHjazu6fP15+p2d9O9WXrS4PjE2PWfwu+Que1+r+qmwPOvXpGwbZ9tluxdhOWrbqW/0vZhoOiMr/G7WX58ZMTKxOegkdONhdOZitC7uORqZszRyOaWktihntyThtDft8PLd4qpks3s0tm0otXawda8i7R7iNxpdNWXYq3Nr83JkKy/SWOPpeelbqxni+WnYZ2yeqy2xvKpgr7VpbjBfJ4ldOqyUoM2TcGzAAAIZUlEQVR4nO2ba1vaSBSAJQsJgYSaloskVNDaItRqq5arSw1U17botutui7urddnb//8HO2cmCUkAmSDI1ue8n3ggMfNyzsyZCy4tIQiCIAiCIAiCIAiCIAiCIAiCIAiCIAiCIAiCIAiCIAiCIAiCIAiCIAiCIAiCTGR30Q2YO+uLbsDc+XnRDZg32tGiWzBvjo/ue5rGUj8sugnz5VhP6fc6iJqeSqUyi27FPDkhgrHYPc7T0xQQ09cW3ZA5kT9JMcOY/k5bdGPmwftCNEoFiWJMP150c2ZN9n1hP8oMQTCWKWee3p8ZqpY9PvlAAmgJgmEmkynrR++6u4lFN25maMcnBbci6YrdRbdp5nT33UG8l2U/cbqfuuflYumMKepPFt2Q+XEKeXp/IwhACH9cdCPmSreQ0u+2DmbNWqPdzrUb9X7lTmZSJyknR3e7x/wj6vnHj3vBn1ZZEY1ImBGJGEaulg/+RwLSddb47/VyWX/HV/ITn7YIHwM+qy+WRBvHMlcJ+FeCkihYL7p6JrO6Wv6J665P3wFb50GeZLr8bEOQNHLJgG0OiF0p3sUyq6DI0yv3tqjhd5/4H5Nvl9xykUjEUZSN+jQN58ZOUpibgiFPVzwPbFgtiaEQ1YuE2/W+aZrNRtiQLVkjN1XTObHHsx9iILiq84xvdgwf8D6kVgqFwLAUrrlSMt+n4w5RlMVgjZ6K9SOIYZlvg/gBVdziHU2ZYKgkmv5PKjmDBnHog3nQLeu6zrsD/gDGUt6BxrQER3Y307grQcL6On8J3jvnLodJS7A6+uNs+M4E50WICY6tCflvXbAu3iz4zZMv3ZSik2/Pc8zr8vkR3UvT+PtcQtOm379p0DrRmOJOzexIKqDEm74MyGcB9rLZKgLxvuvzypMvvV6vUIiedX137bIZjbYL0JeJXz4fXh8cHGz+7Zlp71E4mmmFMPgqQuuogmIhqOmWJwniacJXuOqyWHzz5hFQfGT35+SX3v6LF1FKITpwPCPFQj+iTXn68uXLiwt49ev19eH3wMbG5uZvTiQTv0O14Cn4NdoLg0/L+qoiSYqkOJLpuOtbiquCoLZIrIge8Ig5XtIPH/deUKKWo7ODsQbzNj3BDB8+3N4m66mrq8ND23B5eXPTjlpii3dK06YhzAYV7KgS4FYU1EGqWoZm+o3bkCleWoL7UVvx/UjDbWK4fkEND6kgMVzeebsX0JAlaTuoYE5hgqqQi+cUlearIKQdRTAUWkkQJFna+losWop9S7DX+3IS7VmShV3bMOY13CWCV1fX13/88f3BAVXc2dkJaFgFQ7EWUDBOBRVhhcVeM1uqIkAU7USlhl8V4Y2q9ul7lUvLkaZo75J+F1o3yhxPxxj+uU0EP7O1xvmrA2b4VzBD2g2Dloq+IoOgu+OZRBHC5jYUiODgGtNSBMHBovp03xXENdgYdvfD7e2ri8Fa6nwT0nTnbSKQYWOKbphXZVmWlI7nzSRVTFc9hmrcdUW/aBn23KXlBAz3WU9cS8W8Iw0JoXs5vLdJDT8GMmyPqRX55ChYce9IxFCJ++4w05CnksdQ8FxhxbDnmQR2C4M0ZTHUXIYX3tXwX1Txt5kYNsiKAraivNCw0RDKytAtcTBMV1yGaW/2P2aKX7y3UcMoM6TniI4hUfQtpUgQd6yx5vaGYe9mDUWmS33SC4ng8OBUSUNerrgMfd8C64lF384WTdOCY5hxG174t2xmbuhXDMNHOUhSYcQkiPZEaWCoNn1fATXs+e46g7GmoNmGsUE/fLg9tO32tzPUBBxphifPVgydvVPZMdQMGGdGbdy0IGzpgWHaF60sNbz03bXmN2QxLBPDh0/9j3hFiz4zfMZnWKeGw1ui9VwbyDk4WZoEQzlCpP3QesGqPjP0fXHM8LHvSU/GG74c2nV75Yohp6HJW/EhiDLMfaoG85Gsadtg3qbQGFYGhr5Mnq3ha84sTXLO2jQYW2UYRvqWoaUoSe6pKel81RkZro4xXN7ZZIacMVwS+RZPFcPecasZEVrwLTGBiVE5YGYxHG244TJ8xmfIOuLENK1BlhrQx/pgKHVWxtDJ3sYwxWG4HNCwwvaCJ10m0gkAvDLBUJkwk506hin+GD7nNLQq4oQgVmFfmHZDkq8wbDZvvn4WMVydEMPnJIhchtUSx1abSA/a2JKHZumEg4y7yFJuQxbEUOimS2oyFH3LKiyPmdO4mF8MN1z9kNcwy7a8b6gYFYOeI1phbkIQjRFp6tunmcowxW/IH0P7XKY9LixUMMx6ITSUFkRheE2ZU5ueNf5tDVdnZrjUYIqh0efZpsHmps4bcRkqYsR/XVNV1HQnOW/DDcfwOb+h3RVLjRFL4bbBzroHk8w8DaIU9l5MBAlp85aGqfkYLrWtKJbq3jE12TCsw3x3fJtMUXIVRS1OBe1ti/+foZOoYkmsV5MaIV8x62IkzE71Da94nM1NlbDJIptssv1vQbYvmL/h24CG9nBDj7opcL5trYJl0b+AzDFFSVElsrBSrP19QZo80hRvZwgbw1MaLmXtTA2xnywMfncyqjJ0BHt5Qcys5YU6mAbMJobDv8rwGj5/FsiQzG7apWHDsNEYeXxmSoZ3AeXZtJhBDEf+7uSWhjCwkPQUHcNw2BDH/+yradDwMUFV7bgvbMHZ0z9+w3/glG3I8EOhUPhALz0rDM6ejnS9PPwvX58PCP8yw9evX3OdPfmp1BpkuCkZpbCYWzFv3iqurLQUen4Y6ZheGy2fH3F0St/0FySNQl8mBi9d7465eMwVnAS4+TaPQRAEQRAEQRAEQRAEQRAEQRAEQRAEQRAEQRAEQRAEQRAEQRAEQRAEQRAEQRAEQRAEQRAEQRAEQRAEQZBZ8h/zCV1Yh4qc5gAAAABJRU5ErkJggg==;clipPath=inset(29.56% 5.56% 36.67% 6%);" vertex="1" parent="1">
          <mxGeometry x="443.5" y="569.95" width="105" height="40.1" as="geometry" />
        </mxCell>
        <mxCell id="B5A1lsXzcerOkvqFmVJx-50" value="" style="endArrow=none;html=1;rounded=0;exitX=0.5;exitY=0;exitDx=0;exitDy=0;labelBackgroundColor=none;fontColor=default;" edge="1" parent="1" source="B5A1lsXzcerOkvqFmVJx-47">
          <mxGeometry width="50" height="50" relative="1" as="geometry">
            <mxPoint x="498.0000000000002" y="530.0000000000001" as="sourcePoint" />
            <mxPoint x="497" y="321" as="targetPoint" />
          </mxGeometry>
        </mxCell>
        <mxCell id="B5A1lsXzcerOkvqFmVJx-52" value="NotificaÃ§Ãµes&lt;div&gt;(tecnologia a definir)&lt;/div&gt;" style="ellipse;whiteSpace=wrap;html=1;labelBackgroundColor=none;" vertex="1" parent="1">
          <mxGeometry x="428.00000000000006" y="30" width="146" height="60" as="geometry" />
        </mxCell>
        <mxCell id="B5A1lsXzcerOkvqFmVJx-56" value="" style="endArrow=none;html=1;rounded=0;exitX=0.5;exitY=1;exitDx=0;exitDy=0;labelBackgroundColor=none;fontColor=default;" edge="1" parent="1" source="B5A1lsXzcerOkvqFmVJx-52">
          <mxGeometry width="50" height="50" relative="1" as="geometry">
            <mxPoint x="310" y="220" as="sourcePoint" />
            <mxPoint x="500" y="240" as="targetPoint" />
          </mxGeometry>
        </mxCell>
        <mxCell id="B5A1lsXzcerOkvqFmVJx-58" value="Apache POI" style="text;strokeColor=none;align=center;fillColor=default;html=1;verticalAlign=middle;whiteSpace=wrap;rounded=0;" vertex="1" parent="1">
          <mxGeometry x="588.5" y="266.94" width="60" height="30" as="geometry" />
        </mxCell>
        <mxCell id="B5A1lsXzcerOkvqFmVJx-59" value="JDBC" style="text;strokeColor=none;align=center;fillColor=default;html=1;verticalAlign=middle;whiteSpace=wrap;rounded=0;" vertex="1" parent="1">
          <mxGeometry x="391.75" y="268" width="43.5" height="24" as="geometry" />
        </mxCell>
      </root>
    </mxGraphModel>
  </diagram>
</mxfile>
